<?xml version="1.0" standalone="no"?>
<!DOCTYPE svg PUBLIC "-//W3C//DTD SVG 20010904//EN"
 "http://www.w3.org/TR/2001/REC-SVG-20010904/DTD/svg10.dtd">
<svg version="1.0" xmlns="http://www.w3.org/2000/svg"
 width="225.000000pt" height="225.000000pt" viewBox="0 0 225.000000 225.000000"
 preserveAspectRatio="xMidYMid meet">
<metadata>
Created by potrace 1.10, written by Peter Selinger 2001-2011
</metadata>
<g transform="translate(0.000000,225.000000) scale(0.100000,-0.100000)"
fill="#000000" stroke="none">
<path d="M1196 2178 c-32 -53 -34 -60 -17 -92 12 -23 16 -60 16 -142 0 -93 2
-108 13 -93 44 63 57 193 28 292 -9 31 -19 57 -21 57 -3 0 -11 -10 -19 -22z"/>
<path d="M1890 1851 c-36 -27 -131 -94 -212 -150 -130 -89 -148 -106 -157
-138 -6 -20 -9 -38 -8 -39 7 -8 354 222 410 271 27 24 47 63 47 91 0 21 -9 17
-80 -35z"/>
<path d="M715 1808 c-41 -15 -92 -65 -105 -104 -9 -26 -8 -39 5 -63 8 -17 22
-31 30 -31 8 0 15 -3 15 -8 0 -9 -110 -77 -200 -124 -61 -32 -63 -33 -33 -36
33 -3 166 59 253 117 48 33 70 37 101 21 16 -9 19 -7 19 15 0 14 -6 28 -14 31
-12 5 -10 14 10 52 18 34 24 59 22 92 -3 44 -4 45 -38 47 -19 1 -48 -3 -65 -9z
m63 -63 c2 -12 -12 -38 -33 -62 -32 -38 -38 -41 -60 -31 -42 19 -42 47 -1 86
43 38 89 42 94 7z"/>
<path d="M1202 1767 c-19 -20 -22 -35 -22 -104 0 -87 -10 -107 -52 -101 -35 5
-48 43 -42 123 6 62 5 68 -8 55 -53 -52 -50 -232 4 -261 25 -13 71 -3 93 21
17 19 18 19 43 0 37 -30 95 -27 121 6 17 22 21 41 21 105 0 64 3 79 15 79 20
0 19 7 -5 37 -11 14 -20 32 -20 39 0 22 -14 16 -32 -13 -13 -23 -14 -40 -7
-92 11 -75 6 -97 -23 -107 -47 -14 -66 47 -61 194 1 23 0 42 -1 42 -1 0 -12
-10 -24 -23z"/>
<path d="M1893 1700 l-41 -39 28 -173 c69 -419 84 -613 77 -973 -3 -154 -9
-291 -13 -304 -5 -16 -4 -22 4 -17 21 13 71 164 83 252 14 109 7 464 -16 709
-8 94 -17 176 -20 183 -8 23 13 12 41 -20 40 -49 57 -96 57 -163 l0 -60 15 35
c18 41 27 128 18 165 -4 14 -31 52 -61 85 -59 64 -80 117 -110 271 -8 46 -16
84 -18 85 -1 1 -21 -15 -44 -36z m41 -144 c10 -38 28 -93 42 -122 l25 -53 -22
-31 c-29 -39 -32 -33 -53 110 -10 63 -20 131 -23 150 -9 60 13 21 31 -54z"/>
<path d="M1198 1299 l-37 -44 11 -378 c13 -422 9 -462 -44 -522 -35 -40 -79
-55 -166 -55 -109 0 -179 44 -208 133 -23 70 -14 227 25 435 44 234 41 342
-11 361 -60 22 -110 -29 -230 -229 -138 -232 -196 -300 -255 -300 -27 0 -70
35 -90 73 -13 26 -15 52 -9 159 4 77 2 128 -3 128 -15 0 -48 -99 -61 -184 -26
-175 35 -321 144 -342 98 -18 144 29 261 272 95 194 127 238 169 232 29 -4 47
-46 40 -93 -3 -22 -21 -116 -41 -210 -43 -206 -51 -374 -20 -461 37 -106 136
-177 265 -190 125 -13 223 40 277 151 l27 53 52 -76 c28 -42 71 -90 95 -107
40 -28 48 -30 134 -30 75 0 100 4 133 22 166 88 193 313 94 801 -16 80 -28
147 -26 149 5 5 50 -56 69 -92 8 -17 18 -47 22 -67 7 -36 42 -104 50 -96 8 8
-25 188 -44 238 -10 27 -35 72 -55 99 -47 63 -66 110 -66 161 0 22 -3 40 -8
40 -13 0 -92 -184 -92 -216 0 -17 18 -96 40 -175 64 -228 82 -317 83 -414 2
-142 -40 -209 -147 -236 -65 -16 -140 -6 -181 25 -78 60 -97 150 -126 604 -11
180 -24 349 -27 377 l-7 49 -37 -45z m-440 -121 c12 -12 18 -138 7 -138 -3 0
-19 10 -35 22 -26 19 -34 20 -65 11 -19 -6 -35 -8 -35 -4 0 14 58 89 82 105
27 19 31 19 46 4z m957 -43 c39 -62 40 -65 22 -65 -8 0 -22 -9 -32 -20 -17
-19 -18 -27 -6 -96 7 -42 11 -78 8 -80 -7 -7 -67 207 -67 238 0 31 19 78 31
78 5 0 24 -25 44 -55z m-481 -320 c10 -182 33 -345 57 -411 44 -116 126 -171
242 -162 100 8 173 57 206 137 12 28 31 43 31 24 -1 -46 -27 -147 -48 -186
-40 -74 -94 -102 -199 -102 -76 0 -84 2 -120 31 -21 17 -58 59 -83 94 -60 83
-73 89 -108 52 -15 -16 -40 -50 -55 -75 -21 -34 -42 -53 -83 -73 -49 -24 -62
-26 -120 -21 -71 7 -154 40 -193 77 -37 36 -62 105 -68 186 -3 41 -3 74 0 74
4 0 16 -22 28 -50 26 -60 93 -125 145 -139 22 -6 71 -11 110 -11 130 0 209 63
235 189 8 39 10 131 6 301 -5 254 5 293 17 65z m-799 -102 c-42 -79 -50 -91
-89 -121 -34 -26 -56 -28 -102 -6 -38 18 -71 65 -81 114 l-6 34 42 -35 c76
-61 150 -41 233 62 45 56 47 33 3 -48z"/>
</g>
</svg>
