<svg version="1.2" xmlns="http://www.w3.org/2000/svg" viewBox="0 0 900 900" width="900" height="900">
	<title>Aqsa-svg</title>
	<style>
		.s0 { fill: #000000 } 
	</style>
	<g id="Layer">
		<path id="Layer" class="s0" d="m464 320.5c0 0.8 0.5 1.5 1 1.5 0.6 0 1 1.5 1 3.3 0 3.9-6 11.7-9 11.7-1.1 0-3 0.5-4.4 1.1-1.9 0.9-3.9 0.9-8.6-0.2-5-1.1-6.8-2.1-9.6-5.1-2.8-3.1-3.4-4.6-3.4-8.3 0-2.5-0.4-4.5-1-4.5-1.9 0-3.2 4.4-2.8 9 0.7 7.5 6.1 12.9 14.2 14.4 2.1 0.4 4.6 1.2 5.6 1.8 1.3 0.9 2.6 0.7 5.3-0.5 1.9-0.9 4.3-1.7 5.2-1.7 2.8 0 10.6-6.9 12.2-10.8 1.6-3.8 0.9-9-1.3-9.9-0.8-0.3-1.4-1.1-1.4-1.9 0-0.8-0.7-1.4-1.5-1.4-0.8 0-1.5 0.7-1.5 1.5z"/>
		<path id="Layer" class="s0" d="m447.1 353.1c-0.6 1.8-1.1 7.3-1.2 12.3-0.1 15.9-1.3 26.6-2.9 27.6-0.8 0.5-5.1 1-9.4 1-4.4 0-10.9 0.7-14.5 1.5-9.1 2.1-20.4 5.6-21.5 6.6-0.6 0.5-2 0.9-3.2 0.9-1.3 0-2.9 0.6-3.6 1.2-0.7 0.7-4.4 2.8-8.2 4.7-3.7 1.9-7.3 4-8 4.5-0.6 0.6-3.7 2.8-6.8 4.9-4.6 3.1-17.2 15.5-21.3 20.9-3.9 5.2-7.5 11-9.5 15.3-1.2 2.7-2.9 6.2-3.6 7.7-0.8 1.4-1.4 3.4-1.4 4.5 0 1-0.7 3.6-1.5 5.8-1 2.8-1.4 8.3-1.4 18.5 0.1 16.7 0.6 19.4 3.7 19.8 2.4 0.4 2.2 2.3 2.7-20.8 0.1-5.3 0.7-10.6 1.4-11.7 0.6-1.2 1.1-3.2 1.1-4.5 0-3.7 2.6-10 4.4-11 1-0.6 2.8-0.7 4.2-0.4 2.7 0.7 3 0 1-2.3-0.8-0.9-1.7-3.7-2.1-6.2-0.7-4.4-0.5-4.7 3.3-8 2.1-1.9 4.5-4.5 5.1-5.8 2.6-4.9 18.6-18.5 28.1-23.9 8.6-4.8 22.9-11.2 25.3-11.2 1 0 2.7-0.4 3.7-1 1-0.5 4.4-1.2 7.6-1.6 3.3-0.4 7.3-1.2 8.9-1.9 1.7-0.7 5.2-1.6 7.9-1.9 2.7-0.3 6.3-1.5 8.1-2.6 3.9-2.4 7.2-2.6 9.6-0.4 0.9 0.8 4.3 2.2 7.6 3 3.2 0.8 7.6 2 9.8 2.5 2.2 0.6 6 1.2 8.5 1.3 2.5 0.2 6.1 0.9 8 1.6 1.9 0.8 6.4 2.4 10 3.8 14.2 5.3 26.7 13.6 35.3 23.3 2.6 3 5.3 6.1 6 6.9 0.8 0.8 2.2 3 3.3 4.7 1 1.8 2.4 3.3 3 3.3 0.7 0 2.7 2.5 4.6 5.6 1.8 3 4.3 7.2 5.5 9.2 1.3 2 2.3 4.5 2.3 5.4 0 0.9 1.1 3.8 2.4 6.5 2.1 4.1 2.5 6.5 2.8 16.5 0.3 9.7 0.6 12 2.2 13.7 1.1 1.2 2.3 1.8 2.8 1.3 1.5-1.5 2.1-16.4 0.9-22-0.6-2.8-1.6-7.6-2.2-10.5-0.6-2.8-1.5-5.6-2-6.2-0.5-0.5-0.9-1.6-0.9-2.3 0-1.5-6.6-15.7-8.1-17.6-0.5-0.6-3.1-4-5.8-7.6-6.1-8.3-15.8-17.3-25.2-23.6-8.7-5.8-19.3-11.4-21.7-11.4-0.9 0-2.6-0.7-3.6-1.5-1.1-0.8-2.9-1.5-4.1-1.5-1.2 0-2.6-0.5-3.1-1-0.6-0.6-3.3-1.5-6-2-2.7-0.5-6.9-1.4-9.4-1.9-2.5-0.6-8.2-1-12.7-1.1-7 0-8.4-0.3-9.2-1.9-0.6-1-1.3-9.6-1.7-19.2-0.4-9.6-1-18.5-1.4-19.8-0.9-3.6-2.6-3.6-3.9 0z"/>
		<path id="Layer" class="s0" d="m508.7 423.7c-1.3 1.3-0.6 2.3 2.6 3.7 1.7 0.8 4.9 3.1 7.1 5.1 2.1 2 4.1 3.4 4.4 3.1 0.6-0.6-11.6-12.6-12.8-12.6-0.4 0-1 0.3-1.3 0.7z"/>
		<path id="Layer" class="s0" d="m350 465.5c0 1.5 3.8 4.1 4.7 3.2 0.5-0.5-3.3-4.7-4.2-4.7-0.3 0-0.5 0.7-0.5 1.5z"/>
		<path id="Layer" class="s0" d="m375.5 483c0.3 0.5 1.3 1 2.1 1 0.8 0 1.2-0.5 0.9-1-0.3-0.6-1.3-1-2.1-1-0.8 0-1.2 0.4-0.9 1z"/>
		<path id="Layer" class="s0" d="m390 489c0 0.5 0.7 1 1.5 1 0.8 0 1.5-0.5 1.5-1 0-0.6-0.7-1-1.5-1-0.8 0-1.5 0.4-1.5 1z"/>
		<path id="Layer" class="s0" d="m563.2 508.2c-1.4 1.4-1.6 3.5-0.3 4.3 1.4 0.8 3.5-3.5 2.4-4.6-0.5-0.5-1.4-0.4-2.1 0.3z"/>
		<path id="Layer" fill-rule="evenodd" class="s0" d="m571.7 518.3c0.4 0.7 2.7 2.7 5.1 4.6l4.2 3.3v11.1c0 6.2-0.3 12.1-0.6 13.2-0.5 2-1.3 2-131.4 2h-130.8l-0.6-2.9c-0.3-1.6-0.6-7.5-0.6-13.1v-10.3l4.3-3.3c2.3-1.9 4.6-3.9 5-4.6 1.2-1.9 244.2-1.9 245.4 0zm-231.7 4.6c-1.5 0.4-2.6 1.5-2.8 2.9-0.2 1.4-1 2.2-2.3 2.2-3.1 0-5.9 1.9-5.9 4 0 1-0.4 2.2-1 2.5-0.5 0.3-1 1.7-1 3 0 1.9 0.8 2.6 3.8 3.4 5.3 1.5 232.8 1.5 237.1 0 2.3-0.8 3.1-1.7 3.1-3.4 0-1.3-0.4-2.7-1-3-0.5-0.3-1-1.3-1-2.1 0-1.7-6.2-7.4-9.4-8.8-2.5-1-216-1.8-219.6-0.7z"/>
		<path id="Layer" class="s0" d="m231 553.7c-2.5 0.1-7.6 0.9-11.5 1.7-3.8 0.8-11.5 2.2-17 3.1-5.5 0.9-13.6 2.2-18 3-7.6 1.3-11.5 1.9-24.4 3.4l-5.4 0.6 0.2 51.9c0.2 43.7 0.5 52.2 1.7 53 1.2 0.9 1.4 8 1.6 42.1l0.3 41h7.3 7.3l-0.1-39.9c0-21.9-0.3-40.2-0.5-40.6-0.3-0.5-0.2-2.2 0.1-3.8 0.7-3.3 3.1-4.5 5.8-3 1.6 0.9 1.7 4.6 1.5 44.5 0 23.9 0.3 43.9 0.8 44.3 0.4 0.5 4.3 1 8.6 1.2l7.8 0.3-0.1-42.8c0-23.5-0.3-43.3-0.6-44-0.3-0.8 0-2.6 0.6-4.1 0.8-2.3 1.5-2.7 4.2-2.4l3.3 0.3 0.3 32c0.1 17.6-0.1 38.4-0.5 46.3-0.6 9.9-0.5 14.6 0.3 15.3 1.3 1 18.1 3.8 18.9 3.1 0.3-0.3 0.5-22.2 0.5-48.7 0-41.5 0.2-48.4 1.5-49.5 0.8-0.7 4.2-1.3 7.5-1.5 3.4-0.1 6.4-0.5 6.7-0.9 1.2-1.2-0.6-1.8-4.9-1.8-2.3 0.1-4.8-0.4-5.5-0.9-0.6-0.6-2.2-4.3-3.4-8.2-1.1-4-2.7-7.7-3.4-8.2-0.7-0.6-1.6-3.8-2-7.2-0.4-3.4-1.3-6.7-2.1-7.4-0.8-0.6-1.4-2.8-1.4-4.9 0-3.9-2.7-11.6-3.7-10.6-0.7 0.6-2.4 8.2-2.6 11.6-0.2 1.8 0.3 2.5 1.6 2.5 3 0 5.7 4.2 5.7 8.8 0 2.3 0.7 4.8 1.6 5.8 1 1.1 1.3 2.3 0.8 3.1-0.5 0.7-0.9 3.6-1 6.4-0.2 7.2-1.2 10.5-3.9 13.8l-2.3 2.9-3.1-3.4c-2.7-2.9-3.4-3.2-5.1-2.1-3.2 2-8.1 1.5-8.7-0.8-0.8-3.1-2.1-2.4-3.2 1.7-0.7 2.6-1.9 4.2-3.8 5.1-2.6 1.2-3 1.1-5.6-1.9-2.6-2.8-3-2.9-4.1-1.4-0.8 1.1-2.2 1.6-4.1 1.3-2.8-0.3-3-0.6-3.7-5.7-0.3-2.9-1-5.6-1.5-6-0.5-0.3-1-5-1.1-10.4-0.2-9.9-2.2-19.5-4.4-20.8-0.6-0.4-1-2.4-0.9-4.6 0.1-2.1 0.3-10.9 0.4-19.7l0.2-15.8 3.6-3.2c3.7-3.1 11.8-5.5 19.9-6 1.9-0.1 4-0.5 4.7-0.9 0.6-0.4 4.1-0.9 7.8-1.2 3.6-0.3 7.5-0.9 8.5-1.5 2.6-1.4 10.6-1.2 11.8 0.2 1.3 1.6 2.1 12 2.7 37.2 0.3 10.9 0.8 21 1.2 22.4 1.4 5.6 1.9-1.7 2.2-29.7 0.2-23.5 0.6-29.5 1.9-33.6 1.5-4.4 2-5 4.2-4.7 1.4 0.2 19.4 0.7 40 1.2 20.6 0.4 38.2 1 39.1 1.4 1.8 0.8 4.3-3.1 3.7-6-0.2-1.5-1.5-2-6.3-2.5-5.9-0.7-69.8-0.8-78.5-0.2z"/>
		<path id="Layer" class="s0" d="m586.3 553.7c-3.4 0.3-4.3 0.8-4.3 2.3 0 4.1 2.8 4.5 38.7 4.7 25.7 0.2 35.3-0.1 38.5-1.1 5.2-1.5 6.6-1.2 7.8 2 1.3 3.4 1.5 94.3 0.2 95.6-0.6 0.6-2.5 1.4-4.4 1.8l-3.3 0.8 3 0.1c1.7 0.1 4.8 0.8 7 1.5l4 1.4 0.2 48.7c0.1 26.8 0.3 48.9 0.5 49 0.6 0.5 17.8-1.2 18.4-1.8 0.8-0.8 0.6-79.4-0.2-87-0.6-5-0.4-6.1 1.4-8l2.2-2.3-2.9-1.1c-2.6-1-3.1-0.8-5 1.8-1.2 1.6-2.8 2.9-3.7 2.9-2.1 0-5.4-7.8-6-14.3-1.1-11.2-2.8-13.1-3.9-4.5-2 14.9-3.3 3.9-2.3-19.2 0.5-9.6 1-26.5 1.2-37.4 0.3-17.9 0.5-20.1 2.2-21.3 2.2-1.6 8.2-1.7 12.1-0.2 3.3 1.3 18.2 3.5 30.3 4.4 13.4 1.1 14.7 3.1 14.5 22.5-0.1 7.4 0.2 16.1 0.7 19.4 0.7 4.6 0.6 6.2-0.5 7.5-2.5 2.8-3.8 8.7-4.2 18.6-0.2 5.2-0.9 10.3-1.4 11.3-0.6 1-0.7 2.8-0.4 4 0.3 1.2-0.4 4.1-1.7 6.7-1.7 3.5-1.9 4.9-1 6 0.8 1 1.1 12 1 40.5 0 21.5-0.3 40.3-0.6 41.9-0.7 3.5 0.2 3.9 8.6 3.2l6.5-0.6 0.1-40.4c0-36.6 0.2-40.4 1.7-41.3 1.6-0.8 1.7-5.4 1.7-54.2v-53.3l-5.2-0.7c-2.9-0.3-7.1-0.6-9.2-0.6-3.7 0-11.8-1.2-30.2-4.5-4.5-0.8-9.9-1.5-12.1-1.5-2.1 0-6.3-0.7-9.3-1.6-4.7-1.4-11.8-1.7-46-1.9-22.3-0.1-42.4 0-44.7 0.2z"/>
		<path id="Layer" class="s0" d="m91.5 599.2c-4.6 5.3-7.7 14.1-7.3 20.6 0.2 3.4 0.7 4.7 1.8 4.7 0.9 0 1.6-1.1 1.8-2.5 0.6-4.7 4.4-19.5 5.4-20.7 0.5-0.7 0.8-1.9 0.6-2.8-0.2-1.3-0.7-1.2-2.3 0.7z"/>
		<path id="Layer" class="s0" d="m800 600c0 1.2 0.6 3.1 1.4 4.3 0.8 1.2 1.7 4.9 2.1 8.2 1.1 10.2 1.5 11.5 3.6 11.5 3 0 2.7-11-0.6-17-1.3-2.5-2.9-5.5-3.4-6.8-1.3-2.8-3.1-2.9-3.1-0.2z"/>
		<path id="Layer" fill-rule="evenodd" class="s0" d="m448.1 601.6c0.3 0.2 4.8 0.6 9.9 0.9 5.1 0.3 10.2 1.1 11.3 1.6 1.1 0.6 4.7 1.9 8.1 2.9 10 2.8 22.4 11.9 26.1 19 1.5 2.8 4.2 5 6.4 5 0.5 0 1.6-1.1 2.3-2.4 4.4-8.1 7.3-13.4 8.5-15.9 0.8-1.5 2.3-3.2 3.3-3.7 1.6-0.9 2.4 0.2 6.8 9.3 6.5 13.3 8.2 17.2 8.2 18.9 0 0.8 0.4 1.8 0.9 2.4 0.5 0.5 1.4 3.5 2 6.7 1.6 8.9 2.7 9.9 10.9 10.2l7 0.3 1.5-3.7c0.9-2 1.9-5.5 2.2-7.8 0.4-2.4 1.1-4.5 1.6-4.9 0.5-0.3 0.9-1.4 0.9-2.6 0-1.1 0.6-3.2 1.4-4.6 0.7-1.5 3.5-7.3 6.2-12.9 6.4-13.5 7.1-13.4 14.3 1.2 2.9 6 5.8 11.9 6.4 13 0.6 1.1 1.4 3.6 1.8 5.5 1.2 5.5 3.1 12.3 4 14.7 0.8 2 1.6 2.3 6.8 2.3 3.3 0 6.6 0.3 7.5 0.6 1.1 0.4 1.7-0.2 2.1-2.3 0.3-1.5 1.2-4.9 2-7.4 0.8-2.6 1.5-5.7 1.5-6.9 0-1.2 0.6-3.4 1.3-4.8 0.8-1.5 2.1-4.3 3-6.2 6.7-14.7 10.8-22.2 12.2-22.2 1.2-0.1 13.5 23.8 13.5 26.2 0 0.9 0.4 2 0.9 2.5 0.5 0.6 1.4 3.2 2 6 0.5 2.7 1.5 7.2 2.1 10 0.6 2.7 1.1 5.7 1.1 6.5 0 0.8 0 75.1 0 103h-4.9c-4.6 0-5-0.2-7.5-4.1l-2.7-4.1v-37.8c0-32.1 0.2-37.9 1.5-39 2.5-2.1 4.5-7.1 4.5-11.6v-4.2l-17.1-0.4c-9.4-0.1-20.7-0.1-25.1 0.2-4.4 0.3-26.6 0.4-49.3 0.2l-41.2-0.2 0.5-11.9 0.5-11.8-3.5-2.1c-2-1.2-4.3-2.2-5.3-2.2-1 0-5-3.3-9-7.3-4-4-9-8.1-11.1-9.2-2.1-1.1-4.5-2.6-5.2-3.3-0.7-0.6-1.9-1.2-2.7-1.2-0.7 0-2.6-0.7-4.1-1.5-1.6-0.8-4-1.5-5.4-1.5-1.5 0-3.2-0.6-3.8-1.3-0.9-0.8-5.4-1.2-15.2-1.2-9.8 0-14.3 0.4-15.1 1.2-0.7 0.7-2.4 1.3-3.7 1.3-2.3 0-7.9 2-11.2 4.1-0.8 0.5-2.5 1.3-3.8 1.9-2.8 1.2-3.9 2.1-11.5 9.2-4.9 4.7-6.7 5.8-9.4 5.8-1.8 0-3.3-0.5-3.3-1 0-0.6 0.5-1 1.1-1 0.5 0 2.9-2.1 5.2-4.6 7.6-8.4 17.9-14.7 28.3-17.3 1.8-0.5 3.7-1.2 4.4-1.6 0.6-0.4 4.6-1.3 8.8-1.9 4.2-0.7 8-1.1 8.3-1zm188.8 21.7c-2.2-0.4-8.9 9.8-8.9 13.6 0 1-0.7 2.4-1.5 3.1-1.6 1.3-2 5.7-0.6 7.8 1.2 2 10 3.8 16.1 3.2 5-0.5 5.5-0.7 5.8-3 0.3-3-5.1-18.4-7.7-22-1-1.4-2.4-2.6-3.2-2.7zm-115.1 1.9c-2.3 1.9-3.1 8-1.3 10.3 0.8 1.1 1.5 3.3 1.5 4.9 0 4.1 4.7 10.6 7.5 10.6 1.2 0 2.9-0.8 3.8-1.8 1.9-2 2.3-8.7 0.7-9.7-0.5-0.3-1-1.6-1-2.8 0-1.2-1.4-4.6-3-7.5-3.1-5.3-5.2-6.3-8.2-4zm56.6 0.6c-0.7 0.4-3 4.3-5.1 8.8-3.4 6.8-3.9 8.7-3.4 12l0.6 3.9 7.2 0.9c8.1 1 11.8-0.4 12.9-4.7 0.6-2.7-2.5-12.8-5.7-18.1-2-3.5-4.1-4.4-6.5-2.8z"/>
		<path id="Layer" fill-rule="evenodd" class="s0" d="m262.3 608.2c1 0.4 7.3 11 9.3 15.8 0.3 0.8 1.2 2.8 1.9 4.5 3.8 8.4 4.5 10.5 4.5 12.3 0 1.1 0.7 3.3 1.5 4.8 0.8 1.6 1.5 4.2 1.5 5.9 0 4.8 0.9 5.2 9.3 5.1 7.5-0.1 7.8-0.2 8.3-2.6 0.3-1.4 1.1-4.3 1.9-6.5 0.7-2.2 1.7-5.6 2.1-7.5 0.3-1.9 1-4.1 1.4-5 2.7-5.5 5-10.9 5-11.8 0-0.6 0.3-1.2 0.8-1.4 0.4-0.2 2.2-3.3 4.1-7.1 1.8-3.7 3.9-6.7 4.5-6.7 0.9 0 9.3 15.3 11.7 21.5 0.4 1.1 1.7 4.1 2.8 6.7 1.2 2.6 2.1 5.7 2.1 7 0.1 1.3 0.9 4.8 2 7.8l1.9 5.5h6.7c7.3 0.1 9.1-0.9 9.9-5.3 2.9-14.7 14.7-41.2 18.7-42 1.1-0.2 2.4 1.3 4 4.5 1.2 2.6 2.6 5 3 5.3 0.4 0.3 1.2 1.7 1.8 3 2 4.6 3.8 7.3 5.4 8.2 2.3 1.3 2 2.3-1 3.7l-2.7 1.2 0.8 26.2h-15.5c-19-0.1-51.4-0.1-88.5 0.1l-28 0.1 0.3 5.9c0.2 4.5 0.8 6.5 2.7 8.8l2.5 3 0.1 36.6c0.1 20.2 0 37.3-0.1 38.1-0.1 0.8-1.4 2.9-2.8 4.8-2.5 3.2-3 3.3-8.1 3.1l-5.4-0.3 0.2-49.8c0.2-33.8-0.1-50.3-0.8-51.1-0.8-0.9-0.6-2.2 0.5-4.5 0.8-1.7 2-6.1 2.5-9.8 0.5-3.7 1.4-7.2 1.9-7.7 0.6-0.6 1-1.6 1-2.4 0-1.5 3.1-8.8 6-14.2 1-1.9 3-5.9 4.5-8.8 1.4-2.9 3.2-5.2 3.8-5zm-2.7 16c-3.1 3.4-6.6 10.1-6.6 12.9 0 1.4-0.7 3.4-1.5 4.5-1.7 2.2-2 10-0.5 10.9 2 1.2 19.3-1.8 21.2-3.7 2.1-2.1 2.3-5.4 0.3-8.8-0.8-1.4-1.4-3.4-1.5-4.5 0-2.8-3.7-9.6-6.3-11.7-2.7-2.1-2.7-2.1-5.1 0.4zm58.6-2c-1.8-0.3-2.7 0.8-5.1 6-9.4 20.3-8.8 22.8 5.4 23.1 5.9 0.2 7.7-0.2 9.4-1.7 2.7-2.4 2.7-6.9 0.1-12.4-1.1-2.3-2.5-5.2-3-6.5-0.6-1.2-1.8-3.6-2.8-5.2-1-1.7-2.8-3.1-4-3.3zm45.9 17.2c-2.3 6.5-1.9 8.2 2.6 10.8 2.8 1.6 3.1 1.6 6.1-0.2 3.2-2 3.7-3.2 4.6-10.5 0.3-2.2 0.8-5.5 1.2-7.3 0.3-1.9 0.1-4.5-0.6-6.2-3-7.1-8.6-1.7-13.9 13.4z"/>
		<path id="Layer" class="s0" d="m682.5 613.2c-1.7 4.1-2 10.8-0.5 10.8 0.5 0 1.4-1.9 2-4.3 0.6-2.3 1.3-4.9 1.5-5.7 0.3-0.8 0-2.2-0.5-3-0.7-1.2-1.2-0.7-2.5 2.2z"/>
		<path id="Layer" class="s0" d="m105 614.7c-8.1 5.4-12.9 10.3-9.9 10.3 1.5 0 15.9-10.1 15.9-11.1 0-1.4-3.3-0.9-6 0.8z"/>
		<path id="Layer" class="s0" d="m782 613.7c0.1 0.5 1.5 1.7 3.3 2.9 1.8 1.1 5.3 3.5 7.9 5.4 5.8 4.1 7.4 3.2 2.7-1.6-4.2-4.3-14-9-13.9-6.7z"/>
		<path id="Layer" class="s0" d="m187.7 620.8c-2.1 5.3-2.3 10.2-0.2 10.2 2.5 0 3.6-3.5 2.7-9.2l-0.8-5.3z"/>
		<path id="Layer" class="s0" d="m707.5 621c-0.4 1.1-0.3 3.4 0 5.1 0.5 2.2 0.2 3.6-1.1 5-2.1 2.4-1.5 3.2 1.9 2.3 3.4-0.8 4.1-3.4 2.6-9.4-1.4-5.3-2.4-6.2-3.4-3z"/>
		<path id="Layer" fill-rule="evenodd" class="s0" d="m478.8 630.1c2.7 2.1 9.2 10.4 9.2 11.7 0 0.5 0.7 1.5 1.5 2.2 0.8 0.7 1.5 2.2 1.5 3.4 0 1.3 0.7 4.4 1.6 6.9 0.9 2.7 1.3 5.9 1 7.3-0.6 2.3-1.1 2.5-4.9 2.2l-4.2-0.3v97.7l-34.3 0.2-34.2 0.1v-98.5l-4.6 0.7-4.6 0.6 0.4-5.9c0.4-5.5 1.9-10.9 3.9-14.4 0.5-0.8 1.3-2.5 1.8-3.6 1.1-2.5 9.9-11.8 12.1-12.8 0.8-0.3 3.5-1.7 5.9-3.1 2.4-1.4 5.6-2.5 7-2.6 1.4 0 3.5-0.4 4.6-0.9 7.7-3.3 26.3 1.4 36.3 9.1zm-42.8 0.2c-4.6 2-12.7 9.2-13.6 12-0.3 1.2-1.2 2.9-1.9 3.7-0.7 0.8-1.7 4.2-2.4 7.5-1.6 8.4-0.6 9.1 14.6 10 14.5 1 45.7-0.1 48.5-1.6 1.8-1 2-1.7 1.4-6.1-0.9-6.3-5-15-9.1-19.1-1.8-1.8-5.4-4.4-8.1-5.8-8-4.3-20.6-4.5-29.4-0.6zm33.9 40.7h-19.4c-14.2 0-19.5 0.3-20.2 1.2-3.3 4.2-3.6 6.4-3.3 27.2 0.1 11.6 0.3 26.8 0.4 33.8 0.2 17.7-1 16.9 22.5 17.1l18.3 0.2 2.3-2.7c2.3-2.7 2.3-2.7 2.4-36.5 0.1-29.3-0.1-34.3-1.4-37.1z"/>
		<path id="Layer" class="s0" d="m63.4 628.9c-5.1 1.3-11.6 4.8-15.6 8.5-4 3.7-4.8 5.6-2.3 5.6 0.8 0 1.5-0.5 1.5-1 0-0.6 1-1.5 2.3-2 1.2-0.6 2.9-1.4 3.7-1.9 4.8-2.7 9.5-4.1 17.3-5.2 7.9-1.1 10.1-2 8-3.2-1.7-1-12-1.5-14.9-0.8z"/>
		<path id="Layer" class="s0" d="m678.4 629.4c-0.3 0.8-0.4 2.5-0.2 3.8 0.3 2.2 0.4 2.2 2-0.8 1.6-3 1.5-4.4-0.4-4.4-0.5 0-1.1 0.6-1.4 1.4z"/>
		<path id="Layer" class="s0" d="m819.5 628.7c-9.3 0.9-7.4 2.7 4.5 4.4 8.2 1.2 14.2 3.4 20.5 7.5 2.8 1.8 5.2 2.9 5.4 2.3 0.4-1.4-4.5-6.6-8.9-9.3-3.9-2.5-13.4-5.7-15.9-5.4-0.9 0.1-3.4 0.3-5.6 0.5z"/>
		<path id="Layer" class="s0" d="m101.6 629.8c-0.3 0.6 0.8 1.5 2.4 2.1 1.7 0.5 3 1.4 3 1.9 0 0.6 3.3 1.3 7.3 1.7 7.3 0.7 17.6 3.7 21.2 6.1 2.5 1.8 3.5 1.8 3.5 0.1 0-1.8-13.3-9.3-19-10.8-6.1-1.6-17.6-2.3-18.4-1.1z"/>
		<path id="Layer" class="s0" d="m776.1 630.5c-1.8 0.8-4.1 1.5-5.1 1.5-3.7 0-15 7-15 9.3 0 0.8 0.3 0.8 1.2-0.1 0.7-0.7 1.9-1.2 2.8-1.2 0.8 0 2.7-0.7 4.2-1.4 1.6-0.8 4.9-1.8 7.5-2.1 7.9-1 15.3-2.8 15.3-3.6 0-0.4 1.1-1 2.5-1.3 1.4-0.4 2.3-1.1 2-1.6-0.9-1.5-11.6-1.1-15.4 0.5z"/>
		<path id="Layer" class="s0" d="m813.6 641c-1.9 0.6-1.9 0.7 0.2 2.8 1.2 1.2 2.2 2.4 2.2 2.7 0 0.3 1.7 2.4 3.8 4.6 4.8 5.2 10.1 13 10.2 14.9 0 0.8 1.2 3.3 2.5 5.5 2.8 4.5 3.2 3.2 1.5-4.5-3.3-14.8-13.9-28.4-20.4-26z"/>
		<path id="Layer" class="s0" d="m70.6 645.3c-5.8 5.8-11.6 18.2-11.6 24.7 0 4.6 1.7 6.2 2.5 2.3 1.1-5.5 7.1-15.7 13.2-22.2 5.7-6.3 6-6.8 4.2-7.9-2.9-1.8-3.6-1.5-8.3 3.1z"/>
		<path id="Layer" class="s0" d="m99.7 641.7c-0.9 0.8-0.9 4.3-0.1 4.3 0.4 0 1.2-0.7 1.8-1.6 1-1.3 2.4-0.5 9.9 6 7.9 7 10.7 8.8 10.7 6.9 0-1-9.7-10-14.4-13.5-3.8-2.7-6.6-3.5-7.9-2.1z"/>
		<path id="Layer" class="s0" d="m784.4 645c-5.2 3.9-13.4 12.6-13.4 14.1 0 0.8 3.1-1.4 6.9-5.1 4.2-3.9 10.9-9 12-9 0.6 0 1.1-0.9 1.1-2 0-2.7-0.7-2.5-6.6 2z"/>
		<path id="Layer" class="s0" d="m88.3 650.8c0.3 4.4 1.3 9.2 2.1 10.8 0.8 1.6 2.4 5 3.6 7.6 1.2 2.7 2.6 4.8 3.1 4.8 1.2 0 1.2-4.3-0.1-5.6-1.3-1.3-3.8-10-6.6-23.2-0.2-1.2-0.9-2.2-1.6-2.2-0.8 0-0.9 2.3-0.5 7.8z"/>
		<path id="Layer" class="s0" d="m802.2 648.7c-0.6 2.1-1.4 5.6-1.8 7.8-0.4 2.2-1.3 5.2-2 6.7-0.8 1.5-1.4 3.6-1.4 4.6 0 1.1-0.7 2.5-1.5 3.2-1.8 1.5-2 5.3-0.2 4.8 0.6-0.3 1.3-1.4 1.5-2.6 0.2-1.2 0.7-2.2 1.2-2.2 0.9 0 4.1-6.5 5.9-11.9 1.3-4 1.5-14.1 0.3-14.1-0.5 0-1.4 1.7-2 3.7z"/>
		<path id="Layer" class="s0" d="m102.1 649.5c0 0.6 0.9 2.3 1.9 4 3.4 5.4 11.9 22.9 12.6 25.8 0.3 1.5 1 3 1.5 3.3 0.5 0.3 0.9 1.4 0.9 2.4 0 1 0.5 3.1 1.2 4.7 1.3 3.1 3.1 10.1 5.4 20.8 2.8 12.8 3.3 16 3.3 20.4 0.1 2.4 0.9 6.8 1.8 9.8 1.7 5.3 3.5 6.8 4.7 3.7 0.9-2.2 0.7-16.9-0.1-17.8-0.5-0.4-1.3-3.8-2-7.4-1-6.1-1.7-9.3-5.3-23.2-0.6-2.5-1.5-4.9-2.1-5.4-0.5-0.6-0.9-1.6-0.9-2.4 0-0.8-0.7-3-1.6-5-3.3-7.7-4.6-10.7-5.4-12.2-0.5-0.8-2.1-3.9-3.7-6.9-2.6-5-12.4-16.7-12.2-14.6z"/>
		<path id="Layer" class="s0" d="m786.5 653.5c-2.2 2.5-4.3 5.4-4.8 6.3-0.4 0.9-1.6 3-2.7 4.7-1.1 1.6-2.2 3.7-2.6 4.5-0.3 0.8-1 2.2-1.5 3-0.5 0.8-1.2 2.2-1.5 3-0.3 0.8-1.2 2.9-2 4.7-0.8 1.7-1.4 3.7-1.4 4.5 0 0.8-0.5 1.9-1.1 2.5-0.6 0.6-1.5 2.6-1.9 4.4-0.5 1.9-1.7 5.9-2.6 8.9-2.5 8.4-4.5 17.8-5.4 25.5-0.4 3.8-1.3 9.6-1.9 12.9-1.1 6.1-0.8 8.1 1.4 7.2 0.7-0.2 1.6 0.2 2 1.1 1.1 3.1 2.4-0.2 2.6-6.7 0.1-3.6 0.6-8.3 1.1-10.4 0.5-2.2 1.6-7.6 2.3-12 1.8-10.6 3.8-19.9 4.7-21.1 0.3-0.6 0.9-2.8 1.3-4.9 0.5-2.2 1.4-5.1 2.1-6.5 0.8-1.4 1.4-3.1 1.4-3.8 0-0.6 0.6-2.4 1.4-4 0.8-1.5 2.9-6 4.7-9.8 1.8-3.9 4.6-9.1 6.2-11.7 4-6.6 2.9-7.9-1.8-2.3z"/>
		<path id="Layer" class="s0" d="m392.3 657.7c-4.7 0.9-1.8 3.3 4 3.3 3.4 0 6.6-1.5 5.5-2.5-0.8-0.9-6.9-1.4-9.5-0.8z"/>
		<path id="Layer" class="s0" d="m499 657.9c-2.3 1.6-0.3 2.6 4.7 2.4 7.1-0.3 7.5-2.1 0.6-2.9-2.1-0.3-4.5 0-5.3 0.5z"/>
		<path id="Layer" class="s0" d="m700.4 660.8c-1.9 1.6-1.9 1.9-0.5 4.3 1.4 2.3 1.5 7.9 1.1 47-0.3 24.4-0.4 44.6-0.3 44.8 0.4 0.6 13.4 0.2 15.5-0.5 1.5-0.4 1.6-4.3 1.5-44.7-0.1-24.3 0-45.1 0.3-46.2 0.7-2.7-2.4-3.1-5.5-0.7-3.4 2.7-6.2 1.8-7.5-2.4-1.3-3.9-1.7-4-4.6-1.6z"/>
		<path id="Layer" class="s0" d="m608.1 669.2c-0.5 1.3-0.5 2.7-0.1 3.2 1.3 1.3 8.8-0.4 9.4-2.1 0.8-2 0.9-1.9-4.2-2.7-3.8-0.6-4.3-0.4-5.1 1.6z"/>
		<path id="Layer" class="s0" d="m276 669c0 0.5 0.8 1 1.8 1 1.1 0 3.2 0.6 4.8 1.4 1.6 0.8 4.5 1.6 6.4 1.8 3.2 0.3 3.5 0.1 3.5-2.2 0-2.4-0.2-2.5-8.2-2.8-5.3-0.2-8.3 0.1-8.3 0.8z"/>
		<path id="Layer" class="s0" d="m337 668.9c0 1.4 2.2 2.8 6.1 3.9 4.7 1.3 6.5 0.3 5-2.7-1-1.7-2.1-2.1-6.1-2.1-2.8 0-5 0.4-5 0.9z"/>
		<path id="Layer" class="s0" d="m552 670c-1.3 2.5 0.6 3.6 4.7 2.5 6.4-1.6 6.5-4.5 0.3-4.5-2.9 0-4.2 0.5-5 2z"/>
		<path id="Layer" class="s0" d="m272.5 673.9c-0.3 1.1-1.2 2.2-2 2.5-2.2 0.8-2.2 79.1-0.1 80.3 0.8 0.4 1.5 1.7 1.7 2.7 0.3 1.3 1.7 2.3 3.9 2.9 2.8 0.7 3.6 0.5 4.8-1 0.8-1 1.1-3 0.8-4.7-0.3-1.6-0.6-21.2-0.6-43.7v-40.9h-3.9c-3 0-4.1 0.5-4.6 1.9z"/>
		<path id="Layer" fill-rule="evenodd" class="s0" d="m324.7 672.7l12.8 0.1v88.7l-12.9 0.1c-10.7 0-12.9-0.2-13.4-1.5-0.3-0.9-1.2-2.4-1.9-3.3-1.2-1.4-1.5-8-1.3-40.4 0.1-37.2 0.2-38.9 2-40.7 1.1-1 2-2.1 2-2.5 0-0.4 5.7-0.6 12.7-0.5zm1.5 14c-1.5-1.3-2-1.4-4.4-0.1-1.6 0.8-2.8 2.5-3.2 4.1-0.2 1.6-0.5 14.6-0.5 29v26.2l3.1 1.6c6 2.9 6.2 2.2 6.4-30.4 0.3-26.1 0.1-29-1.4-30.4z"/>
		<path id="Layer" fill-rule="evenodd" class="s0" d="m368.5 672.5l9.2 0.1c8.8 0.1 9.2 0.2 11.7 3l2.5 2.9 0.1 38.2c0 36.1-0.1 38.4-1.9 40.2-1 1-2.1 2.5-2.3 3.2-0.3 1-3 1.4-10.1 1.5l-9.6 0.2-3-3.9-3.1-3.8v-74.7l3.3-3.5zm9.4 13.5c-1.2 0-1.9 0.7-1.9 1.8 0 1-0.5 2.3-1.2 3-0.8 0.8-1.2 8.4-1.4 26.1-0.1 22.8 0 25.2 1.7 28 1 1.7 2.3 3.1 2.9 3.1 1.7 0 4.1-7 3-8.9-0.5-1-0.6-4.3-0.1-7.7 0.4-3.2 0.5-8.6 0.2-11.9-0.3-3.3-0.3-10.1 0-15 0.4-5 0.2-11.1-0.3-13.8-0.8-3.6-1.4-4.7-2.9-4.7z"/>
		<path id="Layer" fill-rule="evenodd" class="s0" d="m522.5 672.6c9.1 0.2 10 0.4 12.4 2.8l2.6 2.6 1 75.4-2.7 3.4c-1.6 1.9-2.8 3.8-2.8 4.3 0 0.4-4.6 0.7-10.2 0.6-9.9-0.2-10.3-0.3-10.6-2.5-0.2-1.3-1-2.6-1.8-2.9-2-0.8-2.1-78.8-0.1-80 0.8-0.4 1.6-1.5 1.9-2.3 0.5-1.3 2.4-1.5 10.3-1.4zm1.8 12.4c-1.8 0.1-3.7 2-4 4.2-0.9 6.2-1 13.4-0.2 14.4 0.6 0.7 0.5 2.2-0.3 3.9-0.9 2-0.9 3.1 0 4.5 0.6 1.1 0.8 2.1 0.4 2.4-1 0.6-0.8 30.8 0.2 32.4 1.1 1.8 4.4 1.4 5.5-0.7 1.3-2.4 1.4-55.3 0.1-58.6-0.5-1.4-1.3-2.5-1.7-2.5z"/>
		<path id="Layer" fill-rule="evenodd" class="s0" d="m590.2 675l2.7 2.5 0.1 38.6c0 32.5-0.2 38.8-1.4 39.9-0.8 0.6-1.6 2.4-1.8 3.8l-0.3 2.7h-14.5c-11 0-14.5-0.3-14.4-1.3 0.1-0.6 0.2-20.8 0.3-44.7l0.1-43.4 13.3-0.3c12.9-0.3 13.3-0.2 15.9 2.2zm-16.9 9.8c-2.2 1.7-2.2 2-2.2 31.1-0.1 28 0 29.5 2 32.2 2.5 3.5 3.9 3.6 6.8 0.5 2.2-2.3 2.3-3 2.2-21.3-0.1-29.8-0.5-37.5-2.1-40.8-1.8-3.6-3.7-4.1-6.7-1.7z"/>
		<path id="Layer" class="s0" d="m617 716.9c0 24.8 0.3 45.2 0.8 45.4 0.4 0.3 2.6 0.2 4.9-0.2 3.4-0.5 4.7-1.3 6.7-4.4l2.6-3.8v-37.7-37.8l-2.9-3.2c-2.5-2.7-3.7-3.2-7.5-3.2h-4.6z"/>
		<path id="Layer" class="s0" d="m117.5 753c-0.4 0.6 1 1 3.5 1 2.5 0 3.9-0.4 3.5-1-0.3-0.6-1.9-1-3.5-1-1.6 0-3.2 0.4-3.5 1z"/>
		<path id="Layer" class="s0" d="m772.5 752.8c0.6 0.5 3 1.2 5.3 1.6 3.3 0.5 4.3 0.3 4-0.6-0.3-0.8-2.5-1.4-5.4-1.6-3.1-0.2-4.5 0-3.9 0.6z"/>
		<path id="Layer" class="s0" d="m101.6 756.5c-1.1 0.8-3.3 1.5-5 1.5-4.2 0-10.6 3-10.6 5.1 0 2.1 4.1 4.9 7.2 4.9 1.3 0 3.6 0.7 5.2 1.5 1.5 0.8 4.9 1.5 7.5 1.5 2.6 0 5.6 0.7 6.7 1.5 1.2 0.9 4.2 1.4 8.4 1.4 7.5 0 5.6-1.7-2.2-1.8-2.5-0.1-5.9-0.8-7.5-1.6-1.5-0.8-4.8-1.7-7.3-2-5.1-0.6-9.6-3.5-8.8-5.6 0.8-1.9 6.4-4.6 11.1-5.4 2.1-0.3 3.5-1 3.2-1.6-0.9-1.4-5.7-1-7.9 0.6z"/>
		<path id="Layer" class="s0" d="m788.5 756c-0.6 1 2 1.5 6.1 1.1 1.4-0.1 2.3 0.6 2.7 1.9 0.3 1.4 1.3 2 3.1 2 1.9 0 2.6 0.5 2.6 1.9 0 2.6-3.6 4.7-9.3 5.4-2.7 0.4-5.6 1.1-6.5 1.7-2.9 1.6 9.2 1.2 12.4-0.5 1.6-0.8 3.9-1.5 5.2-1.5 3.1 0 7.2-2.8 7.2-4.9 0-1.9-5.3-4.6-11.3-5.6-2-0.4-4-1.1-4.3-1.6-0.7-1.2-7.1-1.1-7.9 0.1z"/>
		<path id="Layer" class="s0" d="m498.3 771.7c1.5 0.2 3.7 0.2 5 0 1.2-0.2 0-0.4-2.8-0.4-2.7 0-3.8 0.2-2.2 0.4z"/>
		<path id="Layer" class="s0" d="m771 773c-1 0.7 0.7 1 5.7 1 3.9 0 7.5-0.5 7.8-1 0.8-1.3-11.5-1.3-13.5 0z"/>
		<path id="Layer" class="s0" d="m134.2 774.7c-3.1 1.2 0.6 2.3 7.6 2.3 4.4 0 7.2-0.4 6.7-0.9-1.2-1-12.4-2.1-14.3-1.4z"/>
		<path id="Layer" class="s0" d="m754.5 774.7c-8.5 0.7-7.7 2.3 1.2 2.3 4.5 0 8.4-0.4 8.7-0.9 0.6-1-1.8-2.2-3.7-1.9-0.7 0.1-3.4 0.3-6.2 0.5z"/>
		<path id="Layer" class="s0" d="m156.5 779c2.9 1.2 19.8 1.2 19 0-0.4-0.6-5-1-10.8-0.9-6.6 0-9.5 0.3-8.2 0.9z"/>
		<path id="Layer" class="s0" d="m726 779c-1.9 1.2 12.6 1.2 15.5 0 1.3-0.6-0.6-0.9-6-0.9-4.4 0-8.7 0.4-9.5 0.9z"/>
		<path id="Layer" class="s0" d="m191.5 782c0.4 0.6 5 1 10.8 0.9 6.6 0 9.5-0.3 8.2-0.9-2.9-1.2-19.8-1.2-19 0z"/>
		<path id="Layer" class="s0" d="m685.5 782c-0.4 0.6 3.1 1 9.9 1 5.9 0 10.8-0.4 11.1-1 0.4-0.6-3.1-1-9.9-1-5.9 0-10.8 0.4-11.1 1z"/>
		<path id="Layer" class="s0" d="m655.9 783.5c-0.3 0.2-6.4 0.5-13.7 0.6-7.3 0-13.2 0.5-13.2 1 0 1.2 31.7 1.2 32.4 0 0.9-1.4-4.3-2.9-5.5-1.6z"/>
		<path id="Layer" class="s0" d="m236.5 785c0.4 0.6 7.1 1 18.3 0.9 11.5-0.1 16.5-0.4 14.2-0.9-5.2-1.3-33.3-1.3-32.5 0z"/>
		<path id="Layer" class="s0" d="m300 786.9c-3.8 0.4-4.9 0.8-3.7 1.3 2.6 1.1 74.7 1 74.7-0.1 0-0.5-14-0.9-31.5-1-17.3-0.1-32.1-0.3-32.8-0.5-0.6-0.1-3.7 0-6.7 0.3z"/>
		<path id="Layer" class="s0" d="m572.6 786.7c-0.1 0.1-7.7 0.3-16.9 0.4-9.2 0.1-16.7 0.6-16.7 1 0 1.2 58.9 1 61.5-0.1 1.7-0.7 1.4-0.9-1.5-1-5.7-0.3-26.1-0.5-26.4-0.3z"/>
		<path id="Layer" class="s0" d="m528 788c-1.1 0.7-0.2 1 3.3 1 2.6 0 4.7-0.5 4.7-1 0-1.3-6-1.3-8 0z"/>
		<path id="Layer" class="s0" d="m412.5 789.1c0.5 0.7 2.8 0.8 6.3 0.5 7.8-0.8 7.7-1.6-0.2-1.6-4.5 0-6.5 0.3-6.1 1.1z"/>
		<path id="Layer" class="s0" d="m428 789c0 0.6 10 1 27.9 1 17.6 0 28.2-0.4 28.6-1 0.4-0.7-9.2-1-27.9-1-18.4 0-28.6 0.4-28.6 1z"/>
	</g>
</svg>