<?xml version="1.0" standalone="no"?>
<!DOCTYPE svg PUBLIC "-//W3C//DTD SVG 20010904//EN"
 "http://www.w3.org/TR/2001/REC-SVG-20010904/DTD/svg10.dtd">
<svg version="1.0" xmlns="http://www.w3.org/2000/svg"
 width="300.000000pt" height="334.000000pt" viewBox="0 0 300.000000 334.000000"
 preserveAspectRatio="xMidYMid meet">
<metadata>
Created by potrace 1.10, written by Peter Selinger 2001-2011
</metadata>
<g transform="translate(0.000000,334.000000) scale(0.100000,-0.100000)"
fill="#000000" stroke="none">
<path d="M2267 2533 c-6 -9 -15 -69 -32 -192 -4 -31 -3 -33 11 -20 22 23 51
171 38 200 -6 13 -13 18 -17 12z"/>
<path d="M1660 2381 c-30 -21 -75 -57 -100 -80 -88 -82 21 -25 142 74 71 57
39 62 -42 6z"/>
<path d="M1925 2324 c-4 -16 -16 -58 -27 -94 -12 -41 -22 -120 -28 -215 -5
-82 -12 -160 -16 -173 -5 -18 -3 -21 10 -16 9 3 16 7 16 8 0 1 9 26 21 56 15
42 24 102 34 250 7 107 9 199 5 204 -5 5 -12 -4 -15 -20z"/>
<path d="M806 2264 c-70 -61 -89 -84 -68 -84 11 0 155 124 160 138 8 26 -20
10 -92 -54z"/>
<path d="M2496 2238 c-20 -84 -36 -430 -19 -413 6 6 20 39 32 74 18 56 21 88
21 238 0 95 -4 173 -8 173 -5 0 -16 -33 -26 -72z"/>
<path d="M1773 2268 c-19 -42 -32 -134 -37 -269 -6 -141 -9 -156 -38 -165 -37
-11 -88 -65 -98 -104 -16 -58 -44 -86 -138 -135 -91 -47 -151 -89 -141 -99 10
-10 200 42 221 61 11 10 33 43 49 74 19 39 37 60 57 68 100 41 147 203 140
476 -3 101 -5 115 -15 93z"/>
<path d="M1048 2234 c-20 -43 -23 -71 -28 -234 -3 -102 -4 -187 -3 -189 2 -2
13 18 25 45 19 43 23 72 28 234 4 102 5 187 3 189 -1 2 -13 -18 -25 -45z"/>
<path d="M917 2258 c-4 -10 -10 -26 -14 -35 -3 -10 -9 -98 -12 -196 -6 -175
-6 -178 -31 -197 -14 -11 -37 -22 -52 -25 -32 -8 -58 -40 -58 -72 0 -34 -62
-96 -138 -138 -111 -61 -152 -86 -152 -94 0 -5 47 1 105 13 l106 21 30 44 c16
25 32 55 35 68 4 15 24 31 60 48 45 21 58 34 79 75 36 71 52 141 59 260 7 108
-5 260 -17 228z"/>
<path d="M2390 2203 c-12 -38 -24 -101 -27 -141 -4 -45 -12 -79 -21 -88 -21
-21 -65 -14 -77 14 -13 30 -25 24 -40 -22 -17 -49 -62 -96 -93 -96 -40 0 -65
19 -58 45 10 38 -11 39 -29 2 -9 -19 -49 -60 -91 -93 -124 -97 -129 -102 -122
-110 4 -4 14 -1 22 5 8 7 38 19 67 26 28 8 61 23 73 34 21 19 21 19 45 0 49
-40 108 -14 162 71 13 19 19 22 30 14 34 -27 50 -24 94 17 54 50 81 117 90
220 3 41 8 95 11 122 7 69 -12 58 -36 -20z m-102 -290 c-5 -26 -38 -29 -38 -4
0 15 6 21 21 21 14 0 19 -5 17 -17z m-168 -94 c0 -17 -42 -20 -66 -4 -20 13
-23 19 -14 30 10 12 17 11 46 -2 19 -9 34 -20 34 -24z"/>
<path d="M2295 2223 c-4 -21 -9 -44 -11 -52 -7 -21 -22 -1 -26 33 -4 43 -28
46 -28 4 0 -41 -13 -63 -34 -55 -12 5 -14 14 -10 37 9 43 -13 38 -25 -6 -7
-25 -7 -43 0 -55 10 -20 54 -26 64 -9 4 6 15 8 26 5 33 -11 69 36 69 90 0 54
-17 60 -25 8z"/>
<path d="M1253 2173 c-8 -21 -17 -67 -20 -103 -2 -36 -5 -84 -7 -107 -5 -58
10 -54 28 7 16 54 33 240 22 240 -4 0 -14 -17 -23 -37z"/>
<path d="M1540 2171 c-77 -25 -113 -45 -144 -81 -33 -40 -52 -106 -36 -125 15
-19 -16 -88 -45 -101 -11 -5 -33 -36 -50 -69 l-30 -60 -57 0 c-69 0 -68 3 -68
-150 0 -127 -15 -171 -74 -223 -55 -48 -109 -72 -164 -72 -58 0 -84 22 -108
92 -15 44 -14 49 11 123 26 73 27 101 4 78 -6 -6 -24 -48 -40 -94 -46 -134
-37 -235 27 -294 34 -31 99 -33 161 -5 55 24 139 103 165 154 30 59 68 195 68
247 0 36 6 52 26 73 15 14 32 26 38 26 6 0 21 16 34 36 30 45 45 51 78 25 14
-11 30 -18 34 -16 5 3 16 27 25 54 15 45 15 52 1 80 -9 16 -13 37 -10 45 3 9
37 32 76 53 76 40 129 96 151 159 15 42 13 64 -6 63 -7 0 -37 -8 -67 -18z
m-15 -118 c-27 -23 -48 -33 -71 -33 -39 0 -52 16 -31 37 17 17 116 43 131 35
5 -3 -8 -20 -29 -39z m-165 -233 c0 -11 -7 -20 -15 -20 -15 0 -21 21 -8 33 12
13 23 7 23 -13z m-474 -570 c57 0 58 0 35 -16 -13 -9 -43 -19 -66 -22 -37 -4
-47 -1 -69 21 -14 14 -26 33 -26 42 0 14 4 14 34 -4 24 -15 50 -21 92 -21z"/>
<path d="M362 2153 c-35 -17 -68 -50 -59 -59 3 -3 16 1 29 10 26 18 37 20 57
7 12 -8 8 -15 -18 -36 -43 -37 -32 -43 21 -12 41 24 78 70 66 82 -17 18 -68
22 -96 8z"/>
<path d="M575 2091 c-38 -23 -73 -71 -51 -71 7 0 19 7 26 15 19 23 65 18 100
-11 l31 -27 -37 -38 c-36 -37 -39 -38 -61 -24 -12 8 -31 15 -41 15 -33 0 -110
-57 -136 -102 -37 -63 -59 -129 -46 -142 6 -6 -7 -15 -40 -27 -72 -25 -96 -47
-129 -119 -52 -112 -62 -178 -68 -477 -4 -183 -2 -273 5 -273 20 0 25 41 32
300 5 146 13 295 20 333 11 58 17 71 48 97 20 17 43 30 52 30 25 0 138 38 164
56 29 18 66 89 66 126 0 20 -10 30 -45 49 -25 13 -45 27 -45 30 0 12 36 36 68
47 23 8 40 8 56 1 18 -9 32 -7 64 10 22 11 44 25 47 31 4 6 31 28 61 51 54 40
70 69 36 69 -10 0 -42 16 -72 35 -63 41 -65 41 -105 16z m-115 -361 c0 -44
-37 -79 -100 -95 -37 -9 -49 -10 -36 -2 49 32 64 49 71 84 9 51 22 65 46 52
12 -6 19 -20 19 -39z"/>
<path d="M2770 2004 c-11 -38 -20 -94 -20 -132 0 -64 -1 -66 -43 -106 -87 -83
-258 -146 -460 -168 -126 -13 -250 -1 -345 34 -70 25 -82 34 -82 62 -1 21 -1
21 -15 2 -8 -11 -15 -28 -15 -37 0 -12 -16 -25 -44 -38 -97 -42 -133 -176
-143 -528 -4 -144 -2 -213 5 -213 17 0 32 118 32 251 0 68 7 173 15 234 12 92
18 112 37 127 34 25 65 27 106 7 44 -23 42 -23 42 1 0 24 -6 24 77 3 92 -23
320 -23 421 0 162 37 289 102 366 188 72 80 91 129 92 234 1 50 4 100 8 112 4
12 2 24 -3 27 -6 4 -19 -22 -31 -60z m-868 -414 c67 -23 168 -40 253 -40 57 0
237 23 280 36 13 4 17 3 10 -4 -5 -5 -50 -20 -100 -33 -111 -28 -309 -31 -420
-6 -43 10 -75 12 -86 7 -19 -11 -101 1 -101 14 1 14 75 55 92 51 8 -2 41 -13
72 -25z"/>
<path d="M1594 1905 c-10 -55 -30 -57 -25 -3 2 21 -15 32 -25 17 -4 -7 -10
-26 -13 -42 -4 -17 -13 -33 -20 -35 -11 -4 -13 4 -7 38 6 38 5 42 -8 30 -23
-18 -38 -80 -24 -97 13 -16 44 -17 53 -3 4 6 15 8 26 5 31 -10 69 36 69 85 0
49 -17 53 -26 5z"/>
<path d="M698 1828 c-4 -38 -34 -47 -32 -10 1 32 -15 27 -28 -8 -12 -37 -34
-34 -30 3 5 40 -16 33 -27 -9 -16 -57 17 -98 48 -60 6 7 22 11 35 9 30 -6 56
28 56 74 0 43 -18 43 -22 1z"/>
<path d="M2722 1578 c-39 -51 -40 -61 -6 -87 41 -32 67 -27 98 20 l27 41 -38
33 c-21 19 -40 34 -43 35 -3 0 -20 -19 -38 -42z m54 -47 c-8 -13 -36 -15 -36
-3 0 4 5 13 12 20 14 14 34 0 24 -17z"/>
<path d="M912 1587 c-5 -7 -18 -30 -28 -51 -18 -39 -18 -39 5 -57 41 -33 67
-25 94 30 l23 49 -42 20 c-32 16 -45 18 -52 9z"/>
<path d="M2538 1435 c-10 -21 -16 -25 -39 -20 -24 5 -30 2 -44 -25 -15 -29
-18 -31 -59 -25 -42 7 -45 5 -112 -55 -37 -34 -85 -70 -107 -81 -21 -11 -37
-23 -34 -26 11 -11 117 47 161 88 42 38 49 41 72 30 25 -11 35 -8 94 29 8 5
27 11 41 14 20 4 31 17 43 46 19 48 19 50 6 50 -6 0 -16 -11 -22 -25z"/>
<path d="M2782 1380 c-82 -72 -106 -100 -86 -100 17 0 194 157 194 171 0 19
-19 6 -108 -71z"/>
<path d="M1251 1373 c-73 -79 -94 -118 -46 -87 24 16 135 145 135 158 0 18
-25 -2 -89 -71z"/>
<path d="M419 1379 l-33 -42 -28 32 c-15 17 -31 31 -35 31 -12 -1 -63 -71 -63
-87 0 -16 44 -63 59 -63 5 0 23 16 41 36 l31 36 28 -26 c15 -14 35 -26 44 -26
15 0 67 64 67 82 0 9 -62 67 -72 68 -3 0 -21 -19 -39 -41z"/>
<path d="M1895 1401 c-48 -30 -137 -127 -133 -145 2 -13 14 -7 53 28 55 48
131 136 118 136 -4 0 -21 -9 -38 -19z"/>
<path d="M595 1300 c-73 -74 -84 -100 -19 -49 33 26 104 105 104 115 0 14 -25
-5 -85 -66z"/>
</g>
</svg>
