<?xml version="1.0" standalone="no"?>
<!DOCTYPE svg PUBLIC "-//W3C//DTD SVG 20010904//EN"
 "http://www.w3.org/TR/2001/REC-SVG-20010904/DTD/svg10.dtd">
<svg version="1.0" xmlns="http://www.w3.org/2000/svg"
 width="300.000000pt" height="240.000000pt" viewBox="0 0 300.000000 240.000000"
 preserveAspectRatio="xMidYMid meet">
<metadata>
Created by potrace 1.10, written by Peter Selinger 2001-2011
</metadata>
<g transform="translate(0.000000,240.000000) scale(0.100000,-0.100000)"
fill="#000000" stroke="none">
<path d="M1160 1861 c-51 -16 -87 -41 -123 -84 -33 -40 -41 -45 -92 -50 -87
-9 -133 -38 -185 -115 l-45 -67 3 -202 c4 -207 -7 -295 -42 -349 -12 -18 -11
-33 9 -113 13 -51 29 -135 36 -187 6 -52 15 -94 20 -94 5 0 9 -8 9 -19 0 -13
10 -20 31 -25 69 -13 75 -4 29 46 -47 51 -53 83 -47 257 5 174 17 228 65 287
36 45 77 133 86 184 6 30 2 27 -26 -27 -36 -66 -101 -165 -121 -181 -9 -8 -13
35 -15 195 -2 191 -1 206 18 233 11 15 20 31 20 35 0 4 14 24 30 45 26 32 40
41 88 50 100 21 118 30 161 75 56 60 82 71 171 74 64 2 79 -1 103 -19 15 -12
25 -26 22 -31 -4 -5 -2 -9 3 -9 5 0 12 -9 15 -19 7 -27 62 -59 113 -67 44 -6
98 -48 109 -85 4 -10 11 -19 16 -19 6 0 8 -4 5 -9 -9 -13 77 -94 126 -118 79
-40 171 -24 197 34 6 12 15 23 21 23 5 0 10 7 10 15 0 7 7 18 16 23 9 5 15 11
14 13 -1 2 3 15 9 29 6 14 15 43 21 65 5 22 13 45 17 51 16 24 58 19 108 -12
28 -17 64 -36 80 -42 l30 -10 -38 -1 c-49 -1 -110 -33 -137 -71 -12 -16 -19
-30 -15 -30 8 0 -29 -70 -66 -125 -61 -90 -152 -132 -261 -118 -95 11 -146 8
-166 -10 -10 -9 -21 -15 -24 -12 -2 3 -15 -14 -27 -36 -18 -31 -26 -38 -32
-28 -5 8 -9 20 -9 28 0 15 -68 193 -77 201 -12 12 11 -109 29 -150 19 -45 19
-45 -3 -222 -21 -165 -21 -180 -6 -220 10 -27 19 -95 23 -180 l7 -138 60 0 60
0 -42 38 -42 37 -10 113 c-8 82 -8 125 0 157 6 24 11 64 11 88 0 112 39 246
82 282 30 26 31 26 154 19 l124 -7 62 31 c74 37 122 95 176 213 41 90 53 98
157 100 71 1 75 3 75 24 0 29 -12 39 -85 66 -33 12 -73 33 -88 45 -18 15 -42
24 -62 24 -19 0 -37 5 -40 10 -13 21 -35 10 -35 -17 -1 -16 -7 -39 -15 -53 -8
-14 -14 -40 -15 -58 0 -19 -9 -42 -21 -55 -11 -12 -28 -35 -36 -52 -35 -68
-71 -84 -145 -65 -50 14 -129 88 -168 159 -32 57 -62 78 -129 91 -65 12 -76
20 -107 81 -19 39 -31 50 -61 58 -43 12 -136 13 -173 2z m-439 -918 c-9 -15
-10 -13 -11 13 0 17 3 34 8 38 11 12 14 -32 3 -51z"/>
<path d="M1396 1408 c-4 -21 -11 -61 -15 -90 l-6 -53 -85 3 c-47 2 -107 8
-134 13 -51 9 -156 57 -156 71 0 9 -32 11 -54 2 -9 -3 -16 -13 -16 -20 0 -33
-44 -143 -79 -199 -27 -42 -42 -81 -51 -130 l-12 -70 65 -145 c97 -215 88
-200 124 -200 17 0 39 -3 49 -7 32 -12 9 21 -29 41 -32 17 -39 28 -61 95 -14
42 -34 111 -45 154 l-21 78 20 80 c11 44 30 103 41 132 13 31 22 77 23 114 0
35 2 63 3 63 2 0 23 -16 48 -35 61 -46 128 -64 255 -71 58 -2 124 -7 148 -9
l42 -5 -17 27 c-12 18 -20 55 -23 112 -5 75 -7 81 -14 49z"/>
<path d="M1426 1133 c-19 -182 -22 -231 -20 -363 2 -219 1 -210 27 -210 22 0
22 0 15 118 -3 64 -12 140 -19 168 -9 40 -9 86 -1 195 11 143 9 204 -2 92z"/>
</g>
</svg>
