<?xml version="1.0" standalone="no"?>
<!DOCTYPE svg PUBLIC "-//W3C//DTD SVG 20010904//EN"
 "http://www.w3.org/TR/2001/REC-SVG-20010904/DTD/svg10.dtd">
<svg version="1.0" xmlns="http://www.w3.org/2000/svg"
 width="450.000000pt" height="277.000000pt" viewBox="0 0 450.000000 277.000000"
 preserveAspectRatio="xMidYMid meet">
<metadata>
Created by potrace 1.10, written by Peter Selinger 2001-2011
</metadata>
<g transform="translate(0.000000,277.000000) scale(0.100000,-0.100000)"
fill="#000000" stroke="none">
<path d="M11 1473 c-1 -709 3 -1281 8 -1273 4 8 8 569 7 1246 l-1 1230 21 -4
c16 -3 23 2 28 23 9 34 -1 48 -29 43 -16 -4 -22 -1 -18 9 3 7 0 13 -6 13 -7 0
-10 -378 -10 -1287z m57 1235 c-3 -7 -14 -13 -25 -14 -14 -1 -20 3 -16 12 7
18 46 19 41 2z"/>
<path d="M100 1436 c0 -1256 1 -1326 18 -1326 9 0 123 -9 252 -20 1249 -104
2609 -104 3867 0 131 11 241 20 246 20 10 0 9 262 -4 590 -6 157 -12 286 -13
287 -1 1 -103 -7 -228 -17 -305 -26 -842 -58 -1125 -66 l-232 -7 -3 -131 -3
-131 -245 0 -245 0 0 126 0 126 -450 7 c-247 4 -499 11 -560 14 -101 6 -108 8
-85 21 14 8 128 88 255 179 126 91 249 179 273 196 l44 31 -33 25 c-18 14
-143 112 -278 218 -135 106 -255 198 -265 204 -19 11 -19 10 0 -19 20 -31 266
-233 284 -233 5 0 10 -4 10 -10 0 -5 19 -22 42 -37 23 -16 54 -40 68 -54 14
-14 40 -34 58 -44 33 -20 50 -51 35 -65 -4 -4 -55 -42 -113 -84 -58 -43 -112
-83 -120 -90 -9 -7 -24 -15 -33 -19 -9 -3 -17 -11 -17 -17 0 -5 -6 -10 -13
-10 -7 0 -27 -10 -44 -22 -16 -13 -43 -32 -58 -43 -55 -39 -116 -100 -119
-121 -6 -31 38 -40 211 -43 78 -1 155 -4 170 -6 15 -2 161 -4 323 -6 162 -1
314 -4 338 -7 l42 -4 0 -102 c0 -87 3 -105 19 -123 l20 -21 -46 -7 c-25 -4
-80 -5 -122 -4 -60 3 -82 -1 -101 -14 -25 -17 -25 -19 -28 -192 -4 -162 -5
-174 -21 -165 -10 5 -52 11 -95 14 -43 3 -82 8 -87 12 -6 3 -10 29 -9 58 7
239 -1 278 -66 291 -25 5 -38 1 -60 -18 -26 -22 -28 -29 -29 -108 -1 -46 -3
-120 -4 -164 l-2 -80 -23 47 c-13 26 -45 103 -72 170 -26 68 -55 131 -64 141
-24 26 -93 34 -123 14 -27 -17 -44 -51 -86 -164 -16 -43 -46 -120 -66 -172
-31 -82 -35 -98 -24 -118 14 -27 67 -40 97 -24 10 6 21 8 24 6 2 -3 13 12 24
32 35 67 131 68 166 3 10 -19 26 -41 35 -47 20 -15 91 -17 112 -4 9 6 22 6 34
-1 10 -5 80 -12 154 -15 112 -4 138 -2 159 12 22 14 27 14 54 0 22 -11 64 -15
179 -15 142 0 151 1 171 22 20 22 24 32 20 57 -1 7 9 2 22 -12 44 -47 105 -71
179 -70 84 1 132 23 171 77 27 37 29 47 26 103 -3 51 -9 68 -31 91 -33 34 -33
35 -2 66 14 14 25 33 25 43 0 13 3 14 12 5 7 -7 31 -12 54 -12 43 0 43 0 48
-42 3 -24 5 -79 5 -123 -2 -163 -2 -160 34 -180 37 -20 75 -16 101 11 13 12
16 41 16 152 0 75 3 146 6 158 4 15 18 23 54 30 61 13 60 17 60 -177 l0 -145
39 -22 c25 -14 42 -19 46 -12 3 6 10 8 15 5 5 -3 20 7 34 22 l25 27 24 -22
c29 -27 76 -29 109 -3 20 16 25 30 27 77 1 32 6 65 11 73 8 14 9 14 10 -1 0
-9 3 -18 8 -20 4 -1 24 -29 45 -61 42 -64 59 -74 117 -69 64 6 72 29 72 193 0
78 4 139 9 139 5 0 9 -62 9 -140 0 -127 2 -142 20 -160 17 -17 40 -24 70 -22
3 0 52 3 110 7 58 3 118 8 133 11 59 12 87 80 50 124 -17 20 -25 21 -114 14
-82 -5 -97 -4 -102 9 -9 24 21 36 93 38 104 2 150 68 93 132 -16 17 -26 19
-100 13 -49 -4 -83 -3 -83 2 0 12 50 22 110 22 32 0 57 7 81 23 29 20 34 28
31 57 -2 19 -11 43 -21 53 -17 17 -27 17 -172 6 -191 -16 -206 -26 -202 -136
1 -7 -3 -10 -8 -7 -5 3 -9 23 -9 45 0 43 -22 70 -62 76 -62 10 -88 -23 -88
-111 0 -29 -3 -56 -6 -59 -4 -3 -28 24 -54 61 -26 37 -55 74 -64 82 -40 33
-136 3 -136 -42 0 -20 -3 -19 -28 11 -24 29 -35 34 -71 34 -25 0 -46 -5 -51
-13 -7 -12 -13 -12 -34 -1 -20 11 -59 13 -180 8 -85 -4 -161 -10 -169 -13 -8
-3 -21 -19 -27 -35 -7 -16 -19 -29 -27 -29 -8 0 -12 4 -9 8 3 5 -6 15 -19 22
-36 19 -32 40 8 40 23 0 41 8 57 25 22 23 24 34 23 119 -1 51 2 98 7 105 4 8
33 14 71 16 147 7 220 7 226 2 3 -4 11 -3 17 2 6 5 81 12 166 15 85 4 182 9
215 11 33 3 123 7 200 10 130 5 163 7 285 20 25 2 68 7 95 9 166 17 215 17
222 0 6 -16 7 -16 14 2 5 13 8 6 8 -24 1 -32 -2 -41 -11 -36 -10 6 -10 5 0 -8
9 -11 14 -108 19 -366 5 -298 4 -352 -8 -356 -17 -6 -83 -12 -284 -26 -82 -6
-166 -13 -185 -15 -19 -3 -96 -7 -170 -10 -74 -3 -140 -8 -147 -10 -7 -2 -15
0 -19 6 -4 6 -10 7 -17 1 -15 -12 -188 -22 -647 -38 -304 -10 -1115 -9 -1367
1 -103 5 -219 9 -258 11 -126 3 -320 14 -335 19 -8 2 -98 7 -200 10 -102 4
-188 9 -191 11 -4 2 -58 6 -120 10 -63 3 -141 10 -174 15 -33 5 -77 9 -98 9
-23 0 -36 4 -32 10 4 6 -3 6 -21 0 -15 -6 -30 -8 -33 -4 -3 3 -7 586 -8 1295
-1 971 2 1287 10 1282 13 -8 307 -248 408 -333 36 -30 87 -73 114 -95 27 -22
79 -65 116 -95 36 -30 158 -129 270 -220 112 -90 207 -168 210 -172 11 -16
822 -36 1039 -25 14 0 35 -2 47 -6 20 -8 21 -6 10 22 -10 28 -8 35 36 98 54
79 93 123 109 123 20 0 72 -41 103 -81 17 -21 37 -38 47 -39 9 0 40 -28 70
-61 l54 -62 325 12 c381 14 686 32 1082 63 l287 22 0 135 c0 75 3 273 7 442
l6 305 -94 -8 c-52 -4 -182 -14 -289 -22 -982 -78 -2127 -89 -3145 -31 -263
16 -734 50 -812 61 l-43 5 0 -1325z m4330 1268 c0 -8 5 -14 11 -14 7 0 8 -20
4 -62 -3 -35 -7 -123 -8 -195 -2 -97 -5 -133 -14 -133 -10 0 -10 -7 -2 -27 6
-16 10 -59 9 -98 -1 -38 -2 -114 -1 -168 0 -96 0 -98 -22 -95 -12 1 -28 -1
-35 -6 -8 -5 -53 -10 -100 -13 -48 -2 -101 -8 -118 -12 -17 -5 -38 -4 -47 1
-10 5 -24 5 -34 -1 -23 -12 -65 -17 -78 -10 -9 6 -113 -1 -243 -16 -37 -4 -52
-3 -47 4 9 15 -8 14 -23 -1 -9 -9 -50 -14 -120 -15 -59 -1 -161 -4 -227 -7
-66 -3 -213 -9 -327 -12 l-206 -7 -67 59 c-36 32 -88 80 -115 106 -27 25 -65
52 -85 59 -40 15 -46 29 -11 29 13 0 29 7 36 15 16 19 34 19 50 0 10 -12 41
-15 164 -15 83 0 161 3 174 6 12 4 30 20 39 37 l15 30 16 -26 c19 -31 52 -44
102 -41 19 1 72 5 117 7 138 9 149 13 177 63 14 24 20 44 14 44 -5 0 -18 10
-27 22 -17 20 -26 21 -113 20 -77 -2 -97 0 -101 12 -9 22 4 27 91 32 66 4 80
8 99 29 16 18 21 34 18 57 -7 55 -30 63 -159 58 -45 -1 -57 1 -54 12 3 9 31
15 86 19 89 7 127 24 142 65 13 32 13 30 -7 49 -13 14 -14 21 -5 36 6 10 9 25
6 34 -5 12 2 15 31 15 33 0 36 -2 30 -22 -6 -22 -5 -22 6 -3 18 30 26 33 93
34 70 1 196 8 306 16 41 3 111 7 155 10 44 3 100 7 125 10 60 8 207 21 248 22
21 1 32 -4 32 -13z m-3980 -9 c354 -25 491 -34 620 -40 69 -3 220 -10 335 -16
255 -12 1292 -20 1463 -11 129 7 135 7 145 -18 4 -12 6 -11 6 3 1 19 3 19 141
21 47 1 90 5 97 9 6 4 14 3 18 -3 4 -6 11 -7 17 -4 6 4 31 8 55 10 40 2 44 0
41 -19 -4 -27 -38 -36 -38 -11 0 15 -2 16 -17 2 -26 -22 -113 -34 -124 -16 -6
8 -9 9 -9 1 0 -7 -21 -11 -60 -12 -55 0 -60 2 -60 22 0 19 -4 17 -22 -13 -12
-19 -25 -37 -29 -40 -8 -6 -24 -72 -20 -85 6 -19 3 -287 -3 -293 -3 -3 -17 5
-30 17 -22 20 -33 23 -113 21 -113 -3 -113 -3 -113 14 0 22 14 27 98 32 60 4
82 10 100 26 29 28 29 72 -2 103 -21 21 -32 24 -83 21 -32 -1 -68 1 -78 5 -17
6 -15 8 10 9 130 6 143 9 168 30 21 18 25 29 20 54 -10 52 -36 73 -90 70 -25
-2 -51 0 -57 4 -18 11 -30 9 -49 -7 -17 -14 -20 -14 -28 2 -9 15 -12 16 -25 2
-18 -17 -30 -19 -39 -5 -11 18 -44 10 -77 -19 l-33 -29 -1 -186 c0 -102 -2
-188 -5 -191 -3 -2 -16 14 -30 36 -13 23 -32 48 -41 57 -24 22 -23 27 12 70
37 47 46 90 30 146 -14 50 -51 89 -95 100 -55 14 -264 17 -288 5 -41 -23 -42
-28 -41 -242 2 -231 7 -249 65 -261 22 -4 41 -1 63 12 29 17 31 22 34 85 2 45
7 67 15 67 11 0 55 -52 99 -117 8 -13 18 -20 21 -16 4 3 7 2 7 -4 0 -6 14 -16
30 -22 l31 -10 -57 -56 c-31 -30 -54 -55 -50 -55 4 0 -2 -10 -14 -22 -11 -12
-20 -27 -20 -32 0 -6 -14 -27 -30 -46 l-29 -35 -268 2 c-147 0 -374 5 -503 9
-129 4 -238 7 -242 6 -4 -1 -16 5 -25 13 -10 8 -47 38 -83 66 -36 28 -83 66
-105 84 -22 18 -101 82 -175 141 -74 59 -140 113 -147 119 -6 5 -51 42 -99 80
-48 39 -108 89 -133 113 -72 67 -77 72 -85 72 -4 0 -24 15 -44 34 -105 98
-129 118 -154 132 -55 29 -54 29 222 9z m2930 -164 l0 -38 -120 -8 -120 -7 0
-46 0 -47 110 5 110 5 0 -42 0 -43 -110 0 -110 0 0 -60 0 -60 125 7 125 6 0
-41 0 -42 -83 0 c-46 0 -124 -3 -173 -6 l-89 -7 3 226 3 226 132 4 c73 1 147
4 165 5 31 2 32 1 32 -37z m-889 -29 c24 -27 29 -41 29 -83 0 -45 -4 -55 -34
-85 -19 -19 -44 -34 -57 -34 -24 -1 -24 -1 4 -21 22 -17 127 -161 127 -175 0
-2 -25 -4 -55 -4 l-54 0 -53 77 c-29 43 -56 81 -59 86 -4 5 -25 13 -48 17
l-42 8 3 -94 3 -94 -47 0 -48 0 0 223 0 222 151 -5 151 -5 29 -33z m459 8 l0
-40 -120 0 -120 0 0 -50 0 -49 113 6 112 6 0 -42 0 -41 -112 0 -113 0 0 -61 0
-61 125 3 125 4 0 -36 0 -36 -82 -6 c-46 -4 -122 -7 -170 -7 l-88 0 0 225 0
225 165 0 165 0 0 -40z m1280 -1909 l0 -39 -116 -8 -116 -9 -2 -48 -2 -49 66
6 c36 4 85 9 110 12 l46 5 -4 -40 -4 -39 -86 -7 c-48 -3 -95 -7 -105 -8 -16
-2 -19 -12 -20 -60 l-2 -58 75 6 c41 3 96 8 123 11 l47 6 0 -39 0 -39 -142
-12 c-79 -7 -154 -12 -168 -12 l-25 0 2 217 2 218 108 7 c59 4 122 9 138 11
76 10 75 10 75 -32z m-410 -211 l0 -220 -48 0 -49 0 -76 123 c-42 67 -81 129
-87 137 -7 10 -9 -29 -8 -130 l1 -145 -41 -3 -42 -3 0 221 0 221 46 -3 47 -3
76 -122 c42 -66 81 -129 86 -138 7 -11 9 26 7 119 -2 75 -1 143 2 151 3 10 19
15 46 15 l40 0 0 -220z m-1244 199 c2 -5 -7 -16 -21 -25 -35 -23 -65 -75 -65
-114 0 -39 27 -98 52 -113 24 -16 23 -32 -3 -34 -33 -3 -59 -33 -59 -67 0 -23
-3 -27 -12 -18 -8 8 -47 12 -109 12 -81 0 -98 3 -103 17 -10 25 11 33 87 33
78 0 104 10 117 46 25 65 -24 107 -116 99 -64 -5 -108 9 -63 20 14 3 29 5 35
4 5 -1 35 -1 66 0 45 1 62 6 78 23 22 24 27 77 9 95 -21 21 2 34 52 32 28 -2
52 -6 55 -10z m812 -434 c-2 -2 -22 -6 -45 -10 l-43 -7 0 221 0 220 43 3 42 3
3 -214 c1 -118 1 -215 0 -216z m-1875 415 c17 0 30 -7 34 -17 3 -10 41 -108
85 -217 43 -109 78 -201 78 -203 0 -1 -22 -3 -48 -3 l-48 0 -18 49 c-19 55
-33 61 -135 61 l-57 0 -15 -47 -15 -48 -51 -3 -51 -3 87 221 c77 197 88 220
106 216 11 -3 33 -6 48 -6z m1737 -30 l0 -40 -65 0 -65 0 0 -180 c0 -180 0
-180 -22 -180 -13 0 -33 -3 -45 -6 l-23 -6 0 184 0 184 -65 -4 -65 -4 0 41 0
40 123 4 c67 1 146 4 175 5 l52 2 0 -40z m-473 14 c37 -18 58 -44 68 -85 6
-25 4 -27 -37 -32 -28 -4 -44 -2 -47 5 -2 7 -15 23 -28 36 -20 20 -31 23 -60
19 -44 -8 -65 -25 -61 -51 2 -17 18 -25 80 -43 100 -28 134 -47 153 -83 53
-102 -25 -200 -161 -200 -72 0 -120 22 -151 69 -26 38 -30 81 -9 81 7 0 28 3
45 6 27 6 31 4 31 -15 0 -37 35 -61 87 -61 53 0 83 20 83 57 0 27 -28 42 -119
63 -102 24 -150 95 -117 174 11 27 27 42 58 56 53 24 138 26 185 4z m-927
-174 l0 -180 110 0 110 0 0 -41 0 -42 -37 7 c-21 3 -91 6 -155 6 l-118 0 0
215 0 215 45 0 45 0 0 -180z m600 139 l0 -40 -117 2 -118 2 -3 -47 -3 -46 113
0 114 0 -4 -41 -4 -40 -107 2 -106 2 -1 -57 0 -56 123 0 123 0 0 -40 0 -40
-165 2 -166 3 -2 218 -2 217 163 0 162 0 0 -41z m252 -250 c22 -9 25 -15 17
-26 -17 -20 -56 -16 -73 9 -9 12 -16 26 -16 30 0 10 37 4 72 -13z"/>
<path d="M4356 2683 c-38 -20 -73 -53 -57 -53 6 0 17 5 24 10 7 6 26 22 42 35
34 29 32 31 -9 8z"/>
<path d="M4372 2602 c-35 -44 -43 -73 -22 -79 12 -4 12 -3 2 5 -11 7 -8 15 12
35 23 23 52 77 42 77 -3 0 -18 -17 -34 -38z"/>
<path d="M3986 2199 c-36 -40 -66 -73 -66 -75 0 -1 -13 -17 -30 -35 -16 -18
-28 -35 -26 -37 2 -2 24 18 49 45 53 58 149 173 144 173 -2 0 -34 -32 -71 -71z"/>
<path d="M1754 2559 c-17 -19 -19 -40 -22 -202 -3 -231 0 -258 35 -274 15 -7
41 -13 57 -13 32 1 70 22 59 33 -3 4 -2 7 3 7 5 0 10 30 12 67 1 37 5 70 8 73
3 3 33 4 67 3 51 -2 65 1 84 19 29 27 30 74 2 108 -17 20 -31 25 -73 26 -73 3
-76 3 -76 14 0 6 32 10 75 10 67 0 79 3 100 25 34 33 33 77 -1 104 -24 19 -40
21 -169 21 -131 0 -143 -2 -161 -21z m321 -53 l0 -39 -107 2 -108 2 0 -50 0
-51 95 0 95 0 0 -40 0 -40 -95 0 -95 0 0 -95 0 -95 -45 0 -45 0 0 225 0 226
153 -3 152 -3 0 -39z"/>
<path d="M2250 2409 l0 -57 78 5 c82 6 102 17 102 59 0 34 -22 44 -104 47
l-76 3 0 -57z m126 10 c7 -12 -13 -29 -36 -29 -23 0 -43 17 -36 29 4 6 20 11
36 11 16 0 32 -5 36 -11z"/>
<path d="M1459 389 l-27 -79 59 0 58 0 -28 75 c-15 41 -29 76 -31 78 -3 3 -17
-31 -31 -74z"/>
<path d="M2440 1909 c-33 -46 -60 -88 -60 -96 0 -12 108 -73 129 -73 6 0 31
32 56 71 l45 70 -41 47 c-22 26 -47 51 -55 55 -10 6 -30 -15 -74 -74z m109 -3
l22 -24 -20 -39 c-28 -56 -42 -66 -77 -53 -16 6 -34 16 -40 21 -14 12 -6 52 8
42 6 -3 9 0 6 7 -5 16 42 69 63 70 8 0 26 -11 38 -24z"/>
<path d="M2586 1794 c-40 -62 -47 -77 -35 -85 8 -5 29 -19 47 -30 28 -18 32
-26 33 -67 0 -40 2 -44 12 -29 7 10 35 51 64 92 l51 73 -55 61 c-30 34 -58 61
-61 61 -4 0 -29 -34 -56 -76z m97 -9 c15 -14 27 -34 27 -43 0 -16 -44 -72 -56
-72 -7 0 -64 59 -64 67 0 14 43 73 53 73 7 0 25 -11 40 -25z"/>
<path d="M2286 1737 c-47 -77 -146 -284 -146 -306 0 -30 69 -131 198 -289 l84
-103 -4 -191 -3 -191 118 6 c65 3 120 7 122 9 2 2 5 87 7 188 3 184 3 185 -19
188 -22 3 -22 3 -3 35 24 40 21 47 -98 217 l-87 124 -62 20 c-68 22 -77 30
-38 40 28 7 31 22 13 61 -16 37 -3 41 32 11 44 -36 67 -40 130 -18 l55 19 3
45 3 46 -78 30 c-43 17 -108 42 -146 56 l-67 25 -14 -22z m100 -46 c27 -11 75
-29 107 -41 46 -18 57 -27 57 -45 0 -18 -9 -26 -44 -38 -42 -14 -46 -14 -78 7
-54 36 -97 23 -93 -27 1 -18 -3 -41 -9 -52 -5 -11 -11 -24 -11 -30 -1 -14 34
-40 65 -50 44 -14 68 -35 112 -101 24 -35 46 -64 51 -64 4 0 7 -4 7 -9 0 -6
13 -29 29 -53 32 -47 38 -72 28 -103 -4 -13 0 -35 12 -57 16 -32 18 -54 13
-175 -2 -76 -8 -142 -13 -148 -5 -5 -44 -9 -87 -10 l-77 0 0 175 c0 170 -1
177 -25 210 -14 19 -32 42 -41 51 -9 9 -36 43 -60 74 -24 32 -56 74 -71 94
-38 50 -78 110 -84 125 -5 12 104 243 128 274 14 16 27 15 84 -7z"/>
<path d="M4452 1710 c0 -19 2 -27 5 -17 2 9 2 25 0 35 -3 9 -5 1 -5 -18z"/>
<path d="M2683 1598 c-51 -72 -90 -135 -87 -140 9 -15 105 -60 118 -55 6 3 49
52 94 111 l83 106 -47 55 c-26 30 -53 55 -58 55 -6 -1 -53 -60 -103 -132z
m132 57 c14 -13 25 -30 25 -38 0 -13 -34 -64 -65 -96 -8 -9 -25 -28 -36 -43
-20 -27 -49 -35 -83 -22 -24 9 -20 24 27 86 23 31 53 74 67 97 14 22 29 41 33
41 4 0 19 -11 32 -25z"/>
<path d="M2826 1493 l-88 -105 33 -34 c18 -19 36 -34 39 -34 8 0 169 136 192
162 21 25 21 25 -40 76 l-48 41 -88 -106z m117 43 c36 -27 21 -58 -54 -115
-66 -49 -99 -59 -99 -30 0 7 7 19 15 28 8 9 36 42 61 74 25 31 48 57 52 57 4
0 15 -7 25 -14z"/>
<path d="M2428 1499 c4 -3 28 -18 53 -32 l46 -26 27 27 c14 16 26 30 26 33 0
3 -36 5 -80 5 -43 -1 -76 -4 -72 -7z"/>
<path d="M2568 1338 c51 -76 182 -287 182 -294 0 -2 -11 -4 -25 -4 l-25 0 0
-113 c0 -63 -3 -148 -6 -190 l-7 -77 83 0 83 0 -5 168 -5 167 33 60 c42 78 62
149 70 249 l7 81 -62 -57 c-34 -32 -69 -58 -78 -58 -8 0 -39 22 -69 49 -53 49
-147 91 -201 91 -22 0 -21 -4 25 -72z m95 -4 c18 -9 49 -32 70 -51 59 -53 81
-58 131 -28 l43 25 -3 -32 c-7 -58 -34 -137 -65 -190 l-31 -52 6 -147 c7 -161
8 -159 -55 -159 l-29 0 5 151 c4 130 7 153 24 176 26 32 20 48 -73 195 -60 97
-75 128 -61 128 4 0 20 -7 38 -16z"/>
<path d="M914 632 c0 -9 -5 -16 -12 -14 -8 1 -11 -2 -8 -7 4 -5 2 -12 -4 -16
-13 -8 -14 -384 0 -419 13 -36 57 -55 98 -44 38 10 52 38 52 104 0 28 4 44 13
44 46 1 143 21 163 35 40 26 64 74 64 128 0 48 -25 112 -53 135 -28 24 -104
43 -192 48 -49 4 -97 10 -106 15 -13 6 -16 4 -15 -9z m168 -41 c97 -11 129
-26 152 -76 20 -42 20 -88 0 -131 -23 -49 -59 -64 -151 -64 l-78 0 4 -81 3
-80 -47 3 -46 3 -2 218 -2 217 40 0 c22 0 79 -4 127 -9z"/>
<path d="M1005 461 l0 -61 67 0 c56 0 69 3 78 19 28 53 -4 89 -85 97 l-61 6 1
-61z m105 -1 c9 -17 7 -20 -15 -26 -34 -8 -55 1 -55 26 0 28 55 28 70 0z"/>
<path d="M30 179 c0 -5 -3 -8 -7 -6 -5 3 -9 -10 -10 -29 -2 -36 2 -39 40 -25
24 10 37 35 30 59 -6 15 -53 16 -53 1z m44 -7 c2 -4 1 -14 -4 -22 -7 -11 -12
-12 -21 -3 -6 6 -8 16 -5 22 8 13 23 14 30 3z"/>
</g>
</svg>
