<?xml version="1.0" standalone="no"?>
<!DOCTYPE svg PUBLIC "-//W3C//DTD SVG 20010904//EN"
 "http://www.w3.org/TR/2001/REC-SVG-20010904/DTD/svg10.dtd">
<svg version="1.0" xmlns="http://www.w3.org/2000/svg"
 width="300.000000pt" height="300.000000pt" viewBox="0 0 300.000000 300.000000"
 preserveAspectRatio="xMidYMid meet">
<metadata>
Created by potrace 1.10, written by Peter Selinger 2001-2011
</metadata>
<g transform="translate(0.000000,300.000000) scale(0.100000,-0.100000)"
fill="#000000" stroke="none">
<path d="M1285 2984 c-292 -34 -615 -197 -844 -425 -242 -243 -407 -586 -426
-891 -8 -122 9 -98 36 50 26 142 44 208 92 327 93 230 212 393 427 585 92 82
278 188 425 243 72 27 268 77 307 78 13 0 48 8 78 19 l55 18 -60 -1 c-33 0
-73 -2 -90 -3z"/>
<path d="M1585 2980 c17 -6 93 -23 170 -39 171 -36 287 -76 426 -148 279 -144
501 -375 638 -663 71 -150 107 -273 137 -460 3 -24 12 -60 20 -80 l13 -35 0
58 c2 159 -60 383 -160 578 -162 315 -439 565 -779 704 -114 46 -286 86 -395
91 -76 3 -93 2 -70 -6z"/>
<path d="M1375 2912 c-507 -55 -932 -350 -1148 -795 -76 -158 -137 -382 -137
-509 0 -39 5 -50 27 -68 26 -20 33 -21 444 -18 470 3 451 0 464 81 20 119 139
272 258 330 270 134 612 -18 682 -304 11 -41 25 -72 41 -86 l25 -23 413 0
c403 0 414 1 440 21 33 26 34 74 5 226 -53 275 -184 524 -386 729 -203 206
-472 348 -763 400 -79 14 -296 24 -365 16z m428 -66 c580 -134 1017 -630 1071
-1219 l7 -67 -433 2 -433 3 -8 50 c-30 178 -207 355 -395 394 -73 15 -176 14
-241 -4 -186 -49 -349 -218 -378 -390 l-8 -50 -433 -3 -433 -2 7 67 c58 638
566 1161 1204 1243 117 16 353 3 473 -24z"/>
<path d="M1417 1929 c-171 -33 -320 -184 -346 -351 -12 -69 -5 -163 14 -218
69 -196 282 -325 481 -292 229 38 396 255 368 481 -23 192 -173 351 -359 381
-69 11 -92 11 -158 -1z m245 -61 c145 -67 238 -210 238 -368 0 -117 -42 -211
-129 -294 -73 -67 -147 -99 -246 -104 -132 -7 -229 32 -319 127 -66 72 -98
147 -104 243 -7 123 24 213 105 299 90 96 174 130 308 126 72 -2 101 -8 147
-29z"/>
<path d="M1410 1750 c-97 -33 -180 -148 -180 -250 0 -136 134 -270 270 -270
105 0 225 89 254 189 20 68 20 94 0 162 -22 75 -98 151 -173 173 -70 20 -103
20 -171 -4z m138 -62 c63 -16 125 -78 140 -141 26 -101 -40 -210 -141 -235
-140 -36 -271 95 -235 235 19 76 96 141 181 152 5 1 29 -4 55 -11z"/>
<path d="M135 1470 c-41 -16 -48 -36 -42 -113 21 -267 135 -536 328 -772 54
-67 110 -120 209 -200 25 -20 53 -43 63 -51 9 -8 19 -14 21 -14 2 0 33 -17 67
-39 241 -146 544 -214 839 -190 456 38 862 293 1099 691 106 177 191 449 191
609 0 40 -4 51 -27 69 -26 20 -33 21 -444 18 -473 -3 -446 2 -467 -87 -58
-250 -307 -414 -556 -367 -95 19 -170 56 -241 118 -67 61 -101 115 -140 227
-23 64 -36 89 -55 98 -19 10 -122 13 -425 12 -220 0 -409 -4 -420 -9z m855
-82 c44 -188 195 -344 381 -393 65 -18 168 -19 241 -4 188 39 365 216 395 394
l8 50 433 3 433 2 -7 -67 c-10 -111 -50 -276 -94 -384 -169 -422 -532 -731
-983 -836 -100 -24 -132 -27 -297 -27 -165 0 -197 3 -297 27 -589 137 -1023
629 -1077 1220 l-7 67 430 0 429 0 12 -52z"/>
<path d="M2967 1368 c-9 -35 -23 -101 -32 -148 -56 -293 -193 -548 -408 -759
-121 -119 -223 -192 -372 -266 -140 -70 -267 -112 -439 -145 -148 -28 -168
-43 -47 -35 99 6 275 48 379 89 458 181 796 575 912 1060 19 79 38 266 28 266
-3 0 -13 -28 -21 -62z"/>
<path d="M14 1334 c12 -204 111 -479 242 -670 47 -69 202 -254 213 -254 3 -1
30 -23 60 -50 208 -191 597 -351 848 -350 73 1 36 15 -113 45 -136 27 -254 62
-342 101 -29 13 -54 24 -57 24 -6 0 -124 68 -170 99 -84 55 -155 113 -228 187
-213 213 -341 457 -407 774 -40 190 -53 218 -46 94z"/>
</g>
</svg>
