<?xml version="1.0" standalone="no"?>
<!DOCTYPE svg PUBLIC "-//W3C//DTD SVG 20010904//EN"
 "http://www.w3.org/TR/2001/REC-SVG-20010904/DTD/svg10.dtd">
<svg version="1.0" xmlns="http://www.w3.org/2000/svg"
 width="300.000000pt" height="300.000000pt" viewBox="0 0 300.000000 300.000000"
 preserveAspectRatio="xMidYMid meet">
<metadata>
Created by potrace 1.10, written by Peter Selinger 2001-2011
</metadata>
<g transform="translate(0.000000,300.000000) scale(0.100000,-0.100000)"
fill="#000000" stroke="none">
<path d="M1320 2914 c-198 -36 -318 -73 -445 -136 -402 -202 -677 -557 -772
-1000 -26 -118 -26 -438 0 -558 62 -289 186 -520 392 -726 208 -208 438 -332
735 -395 138 -29 379 -31 520 -6 504 93 927 454 1099 939 100 285 102 627 5
918 -70 209 -186 393 -348 555 -203 203 -432 327 -716 390 -73 16 -410 30
-470 19z m411 -50 c110 -18 299 -79 390 -125 323 -162 578 -456 693 -799 52
-156 70 -269 69 -450 0 -236 -43 -412 -150 -623 -137 -269 -343 -473 -613
-608 -380 -189 -818 -194 -1207 -13 -378 175 -656 514 -759 926 -35 142 -45
397 -20 549 32 194 116 403 229 568 71 104 253 284 357 353 166 110 365 191
530 218 41 6 82 13 90 15 52 10 309 3 391 -11z"/>
<path d="M1291 2594 c-46 -38 -71 -130 -80 -292 -6 -105 -12 -137 -25 -150
-16 -16 -19 -15 -38 8 -18 22 -19 33 -13 120 4 61 3 111 -4 137 -14 50 -61 93
-101 93 -35 0 -85 -40 -110 -89 -28 -56 -77 -99 -139 -122 -77 -28 -115 -60
-145 -121 -43 -87 -31 -182 32 -250 64 -68 135 -69 318 -8 48 17 104 30 125
30 20 0 79 -15 130 -34 118 -42 173 -50 235 -35 94 24 155 115 188 279 36 182
33 269 -11 321 -36 42 -67 53 -102 34 -39 -20 -60 -70 -72 -172 -21 -169 -37
-230 -57 -208 -6 6 -5 78 1 180 6 94 7 183 3 199 -7 30 -75 106 -94 106 -6 0
-24 -12 -41 -26z m71 -41 c26 -25 28 -32 28 -103 0 -43 -5 -134 -10 -205 -6
-70 -8 -136 -5 -146 10 -31 53 -36 81 -8 25 26 54 120 54 179 1 61 28 193 44
208 23 24 65 7 82 -33 20 -50 17 -133 -10 -269 -37 -179 -80 -245 -175 -262
-39 -8 -128 13 -263 61 l-76 28 -133 -43 c-207 -68 -266 -61 -310 35 -26 56
-24 116 6 175 26 52 66 80 134 95 42 9 124 83 142 128 18 47 49 77 78 77 61
-1 75 -40 66 -185 -5 -94 -3 -115 12 -145 19 -36 44 -47 87 -36 36 9 48 52 57
196 8 135 23 210 53 255 21 31 24 31 58 -2z"/>
<path d="M910 2254 c-75 -32 -130 -93 -130 -144 0 -11 12 -32 26 -47 23 -23
31 -25 81 -21 45 4 61 10 79 31 43 50 42 155 -2 183 -15 10 -25 10 -54 -2z
m40 -54 c14 -27 -4 -96 -30 -110 -27 -14 -66 -12 -80 4 -20 25 -7 59 38 93 51
39 58 40 72 13z"/>
<path d="M1812 2597 c-41 -44 -54 -95 -69 -292 -18 -214 -13 -271 22 -309 73
-79 150 27 191 264 29 171 12 303 -45 347 -26 20 -75 15 -99 -10z m87 -26 c28
-28 35 -78 28 -205 -9 -160 -62 -347 -103 -363 -23 -9 -43 16 -50 64 -7 49 11
337 27 420 11 55 41 103 65 103 8 0 23 -9 33 -19z"/>
<path d="M503 1771 c-50 -31 -53 -45 -43 -172 20 -236 10 -309 -56 -404 l-39
-57 28 -24 c18 -15 41 -24 61 -24 45 0 124 54 148 101 35 69 51 190 46 371 -3
150 -6 170 -24 195 -27 36 -76 41 -121 14z m99 -57 c11 -60 9 -321 -2 -392
-22 -132 -61 -181 -151 -190 -47 -4 -68 9 -34 22 30 11 73 96 86 168 10 55 10
108 2 237 -6 91 -9 168 -8 169 8 8 81 31 90 28 5 -1 13 -20 17 -42z"/>
<path d="M855 1632 c-50 -31 -111 -108 -125 -157 -22 -80 -1 -126 89 -195 l33
-25 -23 -48 c-30 -61 -20 -81 41 -85 55 -4 148 40 209 100 42 41 46 43 101 41
31 -1 115 -13 186 -28 104 -21 158 -27 279 -28 158 -1 187 5 225 45 35 37 77
132 101 234 l23 94 -24 25 c-22 23 -30 25 -70 20 -76 -10 -103 -32 -121 -101
-21 -75 -34 -100 -60 -115 -17 -9 -25 -8 -37 5 -14 13 -14 22 -2 71 13 53 12
57 -8 77 -14 15 -37 23 -74 26 -47 4 -57 1 -77 -20 -13 -14 -29 -40 -35 -59
-9 -27 -16 -34 -36 -34 -22 0 -26 5 -31 44 -7 55 -28 71 -95 71 -42 0 -56 -5
-78 -26 -14 -15 -26 -32 -26 -39 0 -21 -37 -47 -58 -41 -10 4 -29 29 -42 56
-13 27 -36 62 -52 77 -26 25 -38 28 -106 31 -62 2 -83 -1 -107 -16z m188 -43
c15 -11 32 -38 38 -60 22 -73 74 -106 134 -83 19 8 45 55 45 84 0 17 6 20 43
20 23 0 51 3 62 6 18 5 20 1 17 -41 -6 -65 17 -97 66 -93 28 2 41 10 59 37 13
19 23 47 23 62 0 29 0 29 65 29 36 0 65 -4 65 -9 0 -5 -7 -25 -15 -44 -31 -75
-7 -137 53 -137 57 0 108 68 119 159 l5 48 67 16 c36 8 67 14 68 13 5 -5 -48
-192 -68 -242 -31 -78 -61 -100 -142 -107 -94 -9 -306 9 -406 33 -47 11 -118
23 -158 27 l-73 6 -39 -45 c-46 -52 -138 -104 -201 -114 l-45 -7 28 32 c55 66
50 105 -20 145 -98 56 -98 138 -1 240 l45 46 70 0 c56 0 76 -4 96 -21z"/>
<path d="M896 1479 c-17 -13 -26 -30 -26 -48 0 -43 21 -62 72 -68 41 -5 48 -3
63 21 18 28 15 77 -6 103 -17 20 -73 16 -103 -8z m74 -49 c0 -23 -13 -32 -34
-24 -19 7 -21 40 -3 47 20 7 37 -4 37 -23z"/>
<path d="M2235 1582 c-62 -46 -86 -94 -95 -188 -6 -63 -13 -82 -54 -145 -25
-40 -46 -76 -46 -79 0 -4 11 -23 24 -43 l24 -35 -20 -19 c-11 -10 -33 -44 -49
-76 -24 -46 -38 -61 -73 -78 -24 -11 -54 -31 -66 -44 -28 -30 -22 -58 25 -115
19 -23 35 -46 35 -51 0 -5 -34 -9 -75 -9 l-75 0 -29 43 c-57 82 -72 96 -116
112 -62 24 -120 14 -178 -31 -25 -20 -54 -34 -64 -32 -10 2 -35 35 -58 78 -68
123 -157 166 -327 158 -75 -3 -81 -5 -109 -36 -66 -74 -9 -144 142 -172 69
-12 129 -41 129 -61 0 -9 -23 -10 -83 -5 -53 4 -94 3 -113 -4 -77 -30 -99 -98
-44 -143 44 -38 115 -49 321 -52 l186 -2 44 -30 c78 -54 120 -58 197 -19 43
21 64 24 227 29 189 6 235 14 280 48 56 44 53 91 -9 152 l-36 34 57 29 c49 24
62 37 83 79 35 72 40 170 10 208 -12 15 -36 33 -53 40 l-30 13 30 34 c68 78
102 176 110 315 5 87 3 103 -11 118 -26 26 -56 20 -111 -21z m88 -54 c-6 -102
-18 -163 -44 -232 -35 -96 -145 -188 -184 -156 -23 19 -18 38 24 88 49 59 61
88 62 160 1 84 18 119 80 168 30 24 57 43 60 44 4 0 4 -33 2 -72z m-67 -446
c36 -24 38 -76 6 -187 -12 -42 -64 -75 -118 -75 -31 0 -51 -7 -70 -24 l-28
-23 44 -23 c54 -27 110 -78 110 -100 0 -9 -8 -24 -17 -32 -38 -32 -89 -41
-273 -45 -181 -4 -186 -5 -241 -34 -31 -16 -64 -29 -72 -29 -8 0 -43 19 -78
42 l-64 43 -185 1 c-255 1 -340 21 -327 76 10 38 50 48 171 41 99 -6 104 -5
115 16 27 50 -40 102 -168 130 -109 24 -141 41 -141 76 0 39 35 55 117 55 162
0 219 -32 283 -160 22 -43 46 -80 55 -84 36 -13 65 -5 92 25 37 41 74 59 120
59 56 0 95 -29 129 -96 16 -33 34 -62 39 -66 12 -9 227 -11 249 -2 21 8 10 27
-61 111 -43 51 -52 67 -42 75 34 22 70 38 87 38 26 0 36 14 61 81 26 68 45 87
108 104 56 15 84 18 99 7z"/>
<path d="M2131 1016 c-7 -8 -15 -30 -18 -50 -5 -32 -3 -36 22 -42 38 -9 59 6
63 45 5 52 -38 82 -67 47z"/>
<path d="M1506 757 c-43 -43 -32 -103 24 -132 42 -22 68 -19 99 13 22 22 27
34 24 59 -6 40 -41 72 -86 80 -29 4 -40 1 -61 -20z m92 -39 c17 -17 15 -47 -3
-54 -8 -4 -26 -3 -40 0 -20 5 -25 13 -25 36 0 26 4 30 28 30 15 0 33 -5 40
-12z"/>
</g>
</svg>
